<?xml version="1.0" encoding="utf-8"?>
<!-- Generator: Adobe Illustrator 25.2.0, SVG Export Plug-In . SVG Version: 6.00 Build 0)  -->
<svg version="1.1" id="Layer_1" xmlns="http://www.w3.org/2000/svg" xmlns:xlink="http://www.w3.org/1999/xlink" x="0px" y="0px"
	 viewBox="0 0 20 20" style="enable-background:new 0 0 20 20;" xml:space="preserve">
<style type="text/css">
	.st0{fill:#113559;}
</style>
<g>
	<path class="st0" d="M9.1,17l1.2-3h1l0.8-2.1l0.1-0.3v-3c0.4-0.1,0.7-0.5,0.7-0.9V7.6c0-0.4-0.3-0.8-0.7-0.9V3.3h0.4
		c0.2,0,0.3-0.2,0.3-0.3c0-0.2-0.2-0.3-0.3-0.3H0.3C0.2,2.6,0,2.7,0,2.9c0,0.2,0.2,0.3,0.3,0.3h0.4v3.4C0.3,6.8,0,7.2,0,7.6v0.1
		c0,0.4,0.3,0.8,0.7,0.9v4.3C0.3,13,0,13.4,0,13.8v0.1c0,0.4,0.3,0.8,0.7,0.9v3.3H0.3c-0.2,0-0.3,0.2-0.3,0.3c0,0.2,0.2,0.3,0.3,0.3
		h7.1L8.2,17H9.1z M6.5,13.9l-1.9-3.2C3.8,9.3,4.8,7.5,6.5,7.5c1.6,0,2.7,1.8,1.9,3.2L6.5,13.9z"/>
	<polygon class="st0" points="9.7,16.6 13.7,16.6 12.9,14.5 10.6,14.5 	"/>
	<polygon class="st0" points="14,16.6 18,16.6 17.1,14.5 14.8,14.5 	"/>
	<polygon class="st0" points="11.9,13.6 15.9,13.6 15,11.5 12.7,11.5 	"/>
	<polygon class="st0" points="19.1,17.3 16.8,17.3 16,19.4 20,19.4 	"/>
	<polygon class="st0" points="12.7,17.3 11.9,19.4 15.9,19.4 15,17.3 	"/>
	<polygon class="st0" points="8.6,17.3 7.7,19.4 11.7,19.4 10.9,17.3 	"/>
</g>
</svg>
