<svg id="Layer_1" data-name="Layer 1" xmlns="http://www.w3.org/2000/svg" viewBox="0 0 250 250"><defs><style>.cls-1{fill:#8da4ac;}</style></defs><path class="cls-1" d="M198.53,120.15v10.06c-.21,1.64-.39,3.29-.63,4.94a72.2,72.2,0,0,1-11.48,30.43q-17.58,26.08-48.6,31.85c-2.62.48-5.28.76-7.92,1.13h-9.48c-.46-.09-.92-.2-1.39-.28-4.14-.69-8.36-1-12.4-2.1a73.43,73.43,0,0,1-55-67A69.43,69.43,0,0,1,58.87,92.9c13-25.42,34.05-39.11,62.42-41.27a66.62,66.62,0,0,1,34.78,6.81q34.85,17.13,41.61,55.5C198,116,198.25,118.08,198.53,120.15ZM56.34,122.56H85.67A129.56,129.56,0,0,1,90.54,89.1l-18.7-7.44A68.61,68.61,0,0,0,56.34,122.56Zm103-33.47a6.48,6.48,0,0,0,.14.75,121.7,121.7,0,0,1,4.58,31.51c0,1.09.4,1.35,1.44,1.35,8.84,0,17.69,0,26.54,0,.42,0,.83,0,1.43-.08A68.31,68.31,0,0,0,178,81.66Zm18.57,79.47c9.67-10.93,15.62-28.22,15.39-40.86h-28.9c-.53,5.76-.81,11.45-1.63,17.06s-2.17,11.17-3.24,16.46ZM56.43,127.67c-.51,12.29,7.42,33,15.48,40.89l18.63-7.42a129.6,129.6,0,0,1-4.88-33.47Zm71.07-34v29h31.68a121.9,121.9,0,0,0-4.71-32.18Zm-.11,34V155c0,2.08,0,2.12,2.08,2.15a121.65,121.65,0,0,1,21.19,2.35l3.7.7a122,122,0,0,0,4.81-32.57ZM95.47,90.12a120.49,120.49,0,0,0-4.75,32.47h31.62V93.33c-4.54-.36-9-.56-13.39-1.09S100.09,90.86,95.47,90.12Zm26.88,67V127.7H90.71a120.63,120.63,0,0,0,4.83,32.6A130,130,0,0,1,122.35,157.1Zm5.13,36.41c.66-.11,1.22-.16,1.76-.3a21.19,21.19,0,0,0,7.77-3.84c4.92-3.71,8.38-8.62,11.21-14,1.74-3.31,3.16-6.8,4.76-10.31a123.74,123.74,0,0,0-25.5-3Zm0-136.82V88.2a123.47,123.47,0,0,0,25.27-3c-.68-1.7-1.25-3.31-1.93-4.86C148,73.73,144.45,67.5,139,62.56A22,22,0,0,0,127.53,56.69ZM122.37,88.2V56.68c-5.37.88-9.54,3.7-13.15,7.45-4.47,4.64-7.56,10.17-10.14,16-.72,1.64-1.33,3.32-2,5.06A124.54,124.54,0,0,0,122.37,88.2Zm0,73.85a124.44,124.44,0,0,0-25.3,3,64.66,64.66,0,0,0,9.67,18.25,29.23,29.23,0,0,0,9.59,8.27,14.29,14.29,0,0,0,6,1.88ZM157.7,84c5.2-1.2,14.22-4.73,16.61-6.47-7.08-8.11-24-18-32-18.57A61.22,61.22,0,0,1,157.7,84ZM92.17,84a64.24,64.24,0,0,1,15-25A67,67,0,0,0,75.43,77.56,79.25,79.25,0,0,0,92.17,84ZM107,191.39c-2.89-3.89-6.11-7.65-8.65-11.82s-4.38-8.71-6.56-13.16c-2.92.4-14.68,4.85-16.16,6.45A68.1,68.1,0,0,0,107,191.39Zm50.85-25.49a64.07,64.07,0,0,1-15.21,25.41,67.67,67.67,0,0,0,32.11-18.9Z"/></svg>