<svg id="Layer_1" data-name="Layer 1" xmlns="http://www.w3.org/2000/svg" viewBox="0 0 250 250"><defs><style>.cls-1{fill:#8da4ac;}</style></defs><path class="cls-1" d="M126.08,69.84l.91.49a4.14,4.14,0,0,1,2.1,4.35A3.87,3.87,0,0,1,125.88,78c-1.73.25-3.5.24-5.25.4a46.83,46.83,0,0,0-40.91,34.88c-3.87,16.11-.4,30.56,10.62,43a44.41,44.41,0,0,0,27.5,14.91c14.18,2.07,26.88-1.53,37.8-10.92a45.8,45.8,0,0,0,14.67-23.55,44.22,44.22,0,0,0,1.47-10.62,11.22,11.22,0,0,1,.16-1.92,4.14,4.14,0,0,1,8.2.76,52.62,52.62,0,0,1-6,24.94c-7.73,14.79-19.68,24.51-35.87,28.58a55,55,0,0,1-66.44-38.88c-.91-3.26-1.21-6.68-1.8-10,0-.31-.14-.62-.21-.93v-7.33c.17-1.3.31-2.62.5-3.92a55.36,55.36,0,0,1,46.33-46.93c1.55-.24,3.11-.42,4.66-.63Z"/><path class="cls-1" d="M121.49,134.76a7.1,7.1,0,0,1,.76-1.1l48.31-48.23c1.29-1.29,2.7-2.11,4.61-1.58a4.14,4.14,0,0,1,2.16,6.55,9.37,9.37,0,0,1-.8.87q-26,25.89-51.9,51.8c-1.37,1.36-2.88,2.2-4.81,1.48a5.27,5.27,0,0,1-2-1.37c-6.79-7.31-13.53-14.66-20.3-22a4.58,4.58,0,0,1-1.46-3.57,4.16,4.16,0,0,1,7.2-2.52c1.76,1.85,3.47,3.74,5.19,5.62L120.71,134C120.87,134.2,121.06,134.35,121.49,134.76Z"/></svg>