<svg id="Layer_1" data-name="Layer 1" xmlns="http://www.w3.org/2000/svg" viewBox="0 0 250 250"><defs><style>.cls-1{fill:#8da4ac;}</style></defs><path class="cls-1" d="M49.88,119.73c.4-2.79.7-5.59,1.21-8.36A75.41,75.41,0,0,1,72.15,71,4.72,4.72,0,0,1,79,70.79a4.66,4.66,0,0,1-.1,6.81A67.69,67.69,0,0,0,64.76,98.46,67.3,67.3,0,0,0,78.48,172c1.37,1.42,2.25,3,1.76,5A4.7,4.7,0,0,1,72.16,179a76,76,0,0,1-22-47.47,9.15,9.15,0,0,0-.28-1.26Z"/><path class="cls-1" d="M115.68,132.89H98.9a4.86,4.86,0,0,1-4.71-2.63,4.67,4.67,0,0,1,.59-5.21q16.89-23.85,33.77-47.72c1.54-2.18,3.53-2.88,5.7-2.12s3.34,2.64,3,5.39c-.78,6.69-1.66,13.36-2.51,20-.42,3.38-.85,6.77-1.29,10.3h5c4.21,0,8.41,0,12.61,0a4.76,4.76,0,0,1,4,7.87q-13.76,18.7-27.5,37.44-6,8.21-12,16.42c-1.24,1.7-2.8,2.77-5,2.36-3-.56-4.45-3.17-3.66-6.37q2.19-8.88,4.41-17.74,2.09-8.37,4.17-16.73C115.57,133.8,115.6,133.41,115.68,132.89Z"/><path class="cls-1" d="M200.12,124.7c-.34,21.17-7.6,39.05-22,54a5,5,0,0,1-4.26,1.83,4.5,4.5,0,0,1-4-3,4.74,4.74,0,0,1,1.06-5c2.62-3.08,5.42-6,7.75-9.34A63.71,63.71,0,0,0,190.11,133q3.13-28.08-14.43-50.22c-1.39-1.75-3-3.37-4.49-5-2.1-2.29-2.18-5.13-.17-7s4.85-1.71,7,.52a75.64,75.64,0,0,1,21.45,44.52c.07.59.19,1.16.22,1.75C199.87,120,200,122.57,200.12,124.7Z"/><path class="cls-1" d="M181.28,127.4c-.23,13.41-5.7,26.94-16.65,38.22a4.72,4.72,0,1,1-6.75-6.55,47.22,47.22,0,0,0,13.19-25.6c2.63-16-1.66-30-12.66-41.94-1-1.09-2-2.11-2.08-3.73a4.68,4.68,0,0,1,8.06-3.65,56.75,56.75,0,0,1,10.3,14C179.11,106.58,181.29,115.59,181.28,127.4Z"/><path class="cls-1" d="M68.64,122.72c.21-13.47,5.69-27,16.69-38.35a4.71,4.71,0,1,1,6.79,6.5A47,47,0,0,0,79.2,114.73C75.88,131.39,80,146,91.52,158.56a7.9,7.9,0,0,1,2,3.58,4.26,4.26,0,0,1-2.61,4.76,4.72,4.72,0,0,1-5.39-1.07A57.21,57.21,0,0,1,75.28,152C70.84,143.54,68.65,134.53,68.64,122.72Z"/></svg>