<svg id="Layer_1" data-name="Layer 1" xmlns="http://www.w3.org/2000/svg" viewBox="0 0 250 250"><defs><style>.cls-1{fill:#8da4ac;}</style></defs><path class="cls-1" d="M140.74,42.76a4.44,4.44,0,0,0,.71.32c5.61,1.5,8.81,5.2,9.85,10.82.5,2.73.86,5.49,1.34,8.22a9.61,9.61,0,0,0,12.68,7.59c2.73-.91,5.4-2,8.1-3,6.53-2.39,12.76-.19,16.26,5.82q6.63,11.37,13.15,22.78c3.42,6,2.22,12.46-3.05,16.86-2.17,1.82-4.41,3.57-6.54,5.44-4.77,4.17-4.76,10.66,0,14.84,2.17,1.9,4.45,3.67,6.67,5.53a12.72,12.72,0,0,1,3,16.49q-6.64,11.72-13.47,23.33a12.71,12.71,0,0,1-15.66,5.66c-2.67-.93-5.29-2-8-2.94-6.4-2.3-12.23,1.18-13.3,7.87-.48,3-.94,6-1.59,9a12.6,12.6,0,0,1-12.27,9.86q-13.5,0-27,0a12.85,12.85,0,0,1-13-11.12c-.44-2.74-.86-5.49-1.34-8.22a9.62,9.62,0,0,0-12.82-7.57c-2.67.92-5.29,2-8,3-6.55,2.4-12.76.21-16.26-5.8q-6.63-11.36-13.15-22.77c-3.46-6.05-2.24-12.48,3.15-17,2.14-1.78,4.32-3.51,6.42-5.34a9.5,9.5,0,0,0,0-14.84c-2.18-1.9-4.46-3.68-6.67-5.53A12.72,12.72,0,0,1,47,95.56q6.65-11.72,13.47-23.33a12.74,12.74,0,0,1,15.8-5.65c2.66,1,5.29,2,8,3,6.29,2.25,12.14-1.28,13.18-7.9.42-2.69.81-5.39,1.35-8,1.13-5.55,4.39-9.14,9.95-10.53a2.7,2.7,0,0,0,.55-.3ZM191.82,148c-2.16-1.78-4.18-3.45-6.21-5.11-11.83-9.64-11.81-26.2,0-35.83,2-1.65,4.05-3.32,6.16-5.07L178.35,78.67c-3.22,1.18-6.24,2.39-9.33,3.4A22.42,22.42,0,0,1,140.09,65c-.59-3.08-1.08-6.18-1.63-9.3H111.52c-.44,2.63-.94,5.2-1.31,7.79A22.51,22.51,0,0,1,79.86,81.69l-8.2-3L58.19,102c2.16,1.78,4.18,3.45,6.21,5.11,11.82,9.67,11.79,26.16-.06,35.83-2,1.66-4.05,3.33-6.15,5.06l13.48,23.35c2.92-1.09,5.66-2.14,8.41-3.13A22.44,22.44,0,0,1,109.91,185c.59,3.08,1.09,6.18,1.63,9.29h26.94c.45-2.64.94-5.21,1.31-7.8a22.52,22.52,0,0,1,30.06-18.33c2.81,1,5.58,2.07,8.49,3.15Z"/><path class="cls-1" d="M125,156.75A31.76,31.76,0,1,1,156.76,125,31.91,31.91,0,0,1,125,156.75Zm-18.81-31.69a18.81,18.81,0,1,0,18.71-18.87A18.86,18.86,0,0,0,106.19,125.06Z"/></svg>