<?xml version="1.0" encoding="utf-8"?>
<!-- Generator: Adobe Illustrator 25.2.0, SVG Export Plug-In . SVG Version: 6.00 Build 0)  -->
<svg version="1.1" id="Layer_1" xmlns="http://www.w3.org/2000/svg" xmlns:xlink="http://www.w3.org/1999/xlink" x="0px" y="0px"
	 viewBox="0 0 250 250" style="enable-background:new 0 0 250 250;" xml:space="preserve">
<style type="text/css">
	.st0{fill:#8DA4AC;}
</style>
<path class="st0" d="M63.3,206.1c-2.6-1.4-3.5-3.5-3.3-6.4c0.2-2.4,0-4.7,0-7.1c0-3.3,1.5-4.8,4.9-4.9c2.8,0,5.6,0,8.6,0V77.1
	c0-4.5,1.4-5.9,6-5.9h3.2c0-1.4,0-2.6,0-3.9c0-3,1.7-4.7,4.7-4.7c14.6,0,29.1,0,43.7,0c2.1-0.2,3.9,1.4,4.1,3.5c0,0.1,0,0.2,0,0.2
	c0.1,1.5,0,3,0,4.9h4.7c3.7,0,5.1,1.4,5.1,5c0,14.2,0,28.5,0,42.7v1.8c2,0.7,3.9,1.5,5.7,2.4c5.2,3,7.7,8,8.7,13.5
	c0.8,4.7,0.9,9.5,1.4,14.3c0.1,1.7,0.6,3.4,1.3,5c1.4,3,4.3,3.1,6.2,0.4c1.5-2.5,2.2-5.4,1.9-8.3c-0.3-6.1-2.1-12-3.8-17.9
	c-2.5-8.6-5.3-17-7.5-25.6c-3.3-11.9-1.5-24.6,5.1-35.1c5.3-8.7,11.5-16.8,18.5-24.2c1.5-1.8,4.3-2,6.1-0.5c0,0,0.1,0.1,0.1,0.1
	c1.8,1.7,1.8,4.5,0.2,6.2c-4.1,4.9-8.1,9.8-12.1,14.6c-0.7,0.6-0.7,1.7-0.1,2.4c2.5,3.8,4.1,8.1,4.9,12.5
	c1.5,9.6-2.9,16.4-12.3,19.1c-0.7,0.2-1.4,0.4-2.4,0.6c0.9,3.7,1.8,7.2,2.8,10.7c2.7,9.2,5.6,18.3,8.1,27.5
	c1.7,5.7,1.8,11.8,0.2,17.5c-1.5,4.7-4.2,8.3-9,10.1c-4.7,1.5-9.8,0-12.9-3.9c-2.8-3.5-3.6-7.5-3.9-11.8c-0.2-4.3-0.7-8.5-1.4-12.7
	c-0.6-2.2-1.6-4.2-2.9-6c-0.5-0.8-1.6-1.3-2.6-2.2v57.8c2.7,0,5.5,0,8.2,0c0.8,0,1.6,0,2.4,0.1c1.8,0.4,3,2.1,2.9,3.9
	c0,3.3,0,6.5,0,9.8c0,2-1.3,3.8-3.1,4.5L63.3,206.1z M108.9,120.6h21.2c3.5,0,5.1-1.6,5.1-5.1V86.1c0-3.5-1.6-5.1-5.1-5.1
	c-14,0-28.1,0-42.1,0c-3.5,0-5.1,1.6-5.1,5.1c0,9.7,0,19.4,0,29.1c0,3.7,1.6,5.3,5.3,5.3H108.9z M166,91.7c4.4-0.9,6.8-3,7.1-6.6
	c0.3-3.3-1-6.3-2.4-9.5C167.8,80.8,165.9,85.8,166,91.7z"/>
</svg>
