<svg id="Layer_1" data-name="Layer 1" xmlns="http://www.w3.org/2000/svg" viewBox="0 0 150 150"><defs><style>.cls-1{fill:#8da4ac;}</style></defs><path class="cls-1" d="M69.17,100c0,5.75,0,11.51,0,17.26a10,10,0,0,0,.5,3,1.45,1.45,0,0,1-.34,1.71,28.67,28.67,0,0,1-18,9.33A29,29,0,0,1,19.53,109.6a28.55,28.55,0,0,1,3.58-23.43C30.68,74.38,38.38,62.69,46,51c1.1-1.69,2.35-1.68,3.47,0q9.6,14.69,19.16,29.41a3.21,3.21,0,0,1,.48,1.68C69.18,88,69.17,94,69.17,100ZM47.72,123.7A21.58,21.58,0,0,1,26.3,102.31H22.58c-.37,13.85,11.91,25.59,25.14,25.11ZM27.35,95.07l-3.66-1.19-1,4.15,3.78.57Z"/><path class="cls-1" d="M77,43.78a25.3,25.3,0,1,1,25.15,25.38A25.27,25.27,0,0,1,77,43.78Zm5.83,0a19.47,19.47,0,1,0,19.57-19.43A19.56,19.56,0,0,0,82.8,43.82Z"/><path class="cls-1" d="M73.07,77.78c5.09,3.48,10.67,5,16.39,5.89a77,77,0,0,0,20.35.68,56.56,56.56,0,0,0,16.49-3.76c1.74-.73,3.37-1.7,5.13-2.6a87.89,87.89,0,0,1-.11,9.19c-.12,1.11-1.31,2.3-2.3,3.1A22.15,22.15,0,0,1,121,94,69.41,69.41,0,0,1,97.2,96.25a51.87,51.87,0,0,1-17.15-3.54,32.25,32.25,0,0,1-5.67-3.42,3.49,3.49,0,0,1-1.32-3.12C73.11,83.46,73.07,80.75,73.07,77.78Z"/><path class="cls-1" d="M73.07,93.52c10.19,6,21.23,7,32.51,6.67a58.64,58.64,0,0,0,18.69-3.27c2.42-.89,4.71-2.1,7.13-3.2,0,.13,0,.46.06.79,0,2.39-.05,4.78,0,7.17a4.3,4.3,0,0,1-1.52,3.43,18.89,18.89,0,0,1-6.76,3.71,58.94,58.94,0,0,1-18,3.13c-7.9.26-15.72-.36-23.25-3a36.44,36.44,0,0,1-6.41-3.11A4.8,4.8,0,0,1,73,101.12C73.2,98.62,73.07,96.11,73.07,93.52Z"/><path class="cls-1" d="M73.07,109c6.75,4.36,14.14,5.78,21.72,6.51a70.65,70.65,0,0,0,28.11-2.54c2.91-.91,5.65-2.34,8.49-3.55a3.28,3.28,0,0,1,.06.58c0,2.39,0,4.79,0,7.18a4.35,4.35,0,0,1-1.53,3.54,19.2,19.2,0,0,1-6.76,3.71,57.34,57.34,0,0,1-16.65,3.06c-8.31.4-16.54-.15-24.47-2.86a37.73,37.73,0,0,1-6.53-3.15,4.78,4.78,0,0,1-2.5-4.77C73.2,114.19,73.07,111.67,73.07,109Z"/><path class="cls-1" d="M101.17,80.85c-6.48-.08-14-.79-21-3.69a23.42,23.42,0,0,1-5.76-3.5c-1.88-1.54-1.74-3.41,0-5.16a17.72,17.72,0,0,1,6.8-3.86c.28-.1.82.2,1.11.46a29.2,29.2,0,0,0,39.81.12,1.49,1.49,0,0,1,2-.35,46.85,46.85,0,0,1,5.82,3.44c2.21,1.75,2.12,3.74,0,5.67-2.54,2.34-5.72,3.47-9,4.42A68.72,68.72,0,0,1,101.17,80.85Z"/><path class="cls-1" d="M104.21,57.43h-3.89c0-1,0-2,0-2.9a1.64,1.64,0,0,0-1-1.79,5.49,5.49,0,0,1-2.91-4.92h3.81c.07.17.16.43.28.67a1.79,1.79,0,0,0,2.17,1.12,1.82,1.82,0,0,0,1.49-2,1.9,1.9,0,0,0-1.68-1.82c-.59-.12-1.21-.1-1.79-.26a5.78,5.78,0,0,1-4.25-4.8A5.58,5.58,0,0,1,99.37,35a1.58,1.58,0,0,0,1-1.68c-.06-1,0-1.93,0-3h3.89c0,1,0,2,0,2.95a1.53,1.53,0,0,0,1,1.69,5.55,5.55,0,0,1,3,4.92h-3.82c-.1-.22-.14-.65-.36-.78a4.48,4.48,0,0,0-2-1,1.53,1.53,0,0,0-1.5,1.73,4.29,4.29,0,0,0,1.25,1.86c.16.19.6.16.92.18A5.88,5.88,0,0,1,108,46.52a5.75,5.75,0,0,1-2.88,6.28,1.46,1.46,0,0,0-.93,1.58C104.26,55.35,104.21,56.32,104.21,57.43Z"/></svg>