<svg id="Layer_1" data-name="Layer 1" xmlns="http://www.w3.org/2000/svg" viewBox="0 0 150 150"><defs><style>.cls-1{fill:#8da4ac;}</style></defs><path class="cls-1" d="M38.05,58.9v-.4l.65-1.93A30.88,30.88,0,0,0,50,62.21a86.58,86.58,0,0,0,25.7,3.31c12.6-.13,25-1.06,35.88-9.06a7.32,7.32,0,0,1-.55,5.89,7.79,7.79,0,0,0-.88,3.2c-.07,9.23-.11,18.47,0,27.7,0,2.06-.67,3.53-2.33,4.3-3.84,1.78-7.66,3.86-11.72,4.86-13.24,3.29-26.62,2.86-39.94.39-5-.94-10-2.34-14.31-5.4a3.07,3.07,0,0,1-1.46-2.85c.07-9.7,0-19.41,0-29.12a5.37,5.37,0,0,0-.31-2C39.49,61.92,38.75,60.42,38.05,58.9ZM74.94,69.31c-1,6-4.11,10.28-7.73,14.26a8.81,8.81,0,0,0-1,1.31C64,88.55,63.75,92.32,66.12,96a10.65,10.65,0,0,0,19.2-2.63c1.39-4.41-.47-7.94-3.37-11.06a25,25,0,0,1-6.44-11.79A8,8,0,0,0,74.94,69.31Z"/><path class="cls-1" d="M80,131.44H70.24c-.58-.12-1.17-.26-1.76-.35-4.66-.71-9.39-1.14-14-2.19-5.14-1.18-10.14-3-13.94-6.93-2.4-2.53-2.54-5.08-.89-8.11,1.48-2.74.93-5.77.38-8.63a23.7,23.7,0,0,0-2-4.76v-.41l.53-1.35c2.57,1.37,5,2.9,7.58,4,6.24,2.56,12.87,3.62,19.54,4.26a98.93,98.93,0,0,0,26-.78c6-1,11.9-2.57,17.11-6,.92-.6,1.81-1.27,2.81-2A7.38,7.38,0,0,1,111,104a12.61,12.61,0,0,0-.13,10.33c1.1,2.7,1.15,5.08-.87,7.31a17.65,17.65,0,0,1-3.56,3c-5.07,3.21-10.78,4.63-16.6,5.6C86.6,130.74,83.3,131,80,131.44Z"/><path class="cls-1" d="M70.24,18.56H80c.66.12,1.31.26,2,.37,4.47.7,9,1.14,13.4,2.15,5.17,1.19,10.13,3.05,14,7,2,2.14,3,4.77,1.78,7.45a15.41,15.41,0,0,0-1,6.69c0,3.26-.06,6.53,0,9.78a3.39,3.39,0,0,1-1.45,3.1,30.66,30.66,0,0,1-12,5.36A92.23,92.23,0,0,1,55,60.64c-4.23-.93-8.25-2.88-12.31-4.51-1.67-.68-2.41-2-2.32-4,.2-4.07.08-8.15,0-12.22A3.89,3.89,0,0,0,40,37.75C36.84,33.28,39,29.3,42,26.86c4.72-3.84,10.37-5.51,16.17-6.63C62.18,19.46,66.23,19.1,70.24,18.56Zm1.84,3.56c-3.17.44-9.3,1.08-15.33,2.23-4.44.84-8.79,2.33-12.25,5.48-2.66,2.42-2.7,5.06.2,7.19A27,27,0,0,0,52,40.91c13.72,4.59,27.66,4.54,41.65,1.42,4.24-.95,8.36-2.35,11.73-5.25,3-2.55,2.87-5.47-.34-7.76a27.39,27.39,0,0,0-5.48-3C91.7,23.06,83.43,22.35,72.08,22.12Z"/><path class="cls-1" d="M68.11,89,69,87.85c.43.4,1.15.75,1.22,1.2a8.62,8.62,0,0,0,3.45,6.14c.37.27.34,1.1.5,1.68-.6,0-1.33.13-1.78-.14C69.57,95.05,68.63,92.29,68.11,89Z"/><path class="cls-1" d="M57.3,30a10.18,10.18,0,0,1,6,1.75c1.24.88,1.34,1.49,1.34,1.76,0,.91-.92,1.67-1.58,2a12.48,12.48,0,0,1-11.51,0,2.39,2.39,0,0,1-1.6-2c0-.2.08-.89,1.6-1.87A10.55,10.55,0,0,1,57.3,30Zm-4.47,3.51C53,35.16,59,35.7,61,34.43c.2-.13.72-.46.71-.89s-.46-.68-.63-.78c-1.79-1.12-7.63-1.4-8.21.46A.66.66,0,0,0,52.83,33.54Z"/></svg>