<svg id="Layer_1" data-name="Layer 1" xmlns="http://www.w3.org/2000/svg" viewBox="0 0 150 150"><defs><style>.cls-1{fill:#8da4ac;}</style></defs><path class="cls-1" d="M26.73,125.28v-.71q0-44.41,0-88.82A10.86,10.86,0,0,1,35.3,25a12.13,12.13,0,0,1,2.48-.25q17,0,34,0A10.75,10.75,0,0,1,82.67,34a11,11,0,0,1,.08,1.82V63.33c1.59.25,3.1.37,4.55.73A15.55,15.55,0,0,1,98.72,77.4q.12,1.21.12,2.43,0,12.6,0,25.21a8.19,8.19,0,0,0,14.48,5,8.2,8.2,0,0,0,1.71-5.3q0-17,0-34.08V62.53h-.82c-1.56-.05-3.13,0-4.67-.17-3.38-.46-5.37-2.55-6.2-5.78a10.23,10.23,0,0,1-.29-2.4c0-4.57,0-9.13,0-13.69a1.35,1.35,0,0,0-.59-1.19c-1.94-1.5-3.87-3-5.8-4.55-.23-.18-.45-.38-.75-.63l5-6.43c1.26,1,2.51,1.94,3.72,2.94,4.15,3.41,8.33,6.79,12.42,10.28a16.31,16.31,0,0,1,5.8,11.4c.31,3.55.43,7.12.44,10.68.05,13.94,0,27.87.05,41.81a16.34,16.34,0,0,1-13.17,16.1,16,16,0,0,1-18.73-13,21.86,21.86,0,0,1-.25-3.23c0-8.38,0-16.76,0-25.14a8.07,8.07,0,0,0-6.8-8.12,12.33,12.33,0,0,0-1.55-.09v53.94Zm28-64.36H70a4.89,4.89,0,0,0,5.06-5V37.54a5,5,0,0,0-5.18-5.19H39.71a4.93,4.93,0,0,0-5.23,5.2V55.78a4.93,4.93,0,0,0,5.15,5.14Zm52.51-18.05c0,.28,0,.43,0,.58,0,3.79,0,7.59,0,11.38a1.66,1.66,0,0,0,1.37,1.84,3.5,3.5,0,0,0,1.12.18c1.62,0,3.25,0,4.88,0,.19,0,.38,0,.58,0-.08-1.1-.11-2.14-.22-3.17a10.08,10.08,0,0,0-2.65-6.22C110.75,45.85,109,44.44,107.25,42.87Z"/></svg>