<svg id="Layer_1" data-name="Layer 1" xmlns="http://www.w3.org/2000/svg" viewBox="0 0 150 150"><defs><style>.cls-1{fill:#8da4ac;}</style></defs><path class="cls-1" d="M84.91,131.44H81l-.45-.1c-1.61-.23-3.24-.36-4.83-.7A34.07,34.07,0,0,1,48.88,97.91a28.66,28.66,0,0,1,1.78-9.57,96.73,96.73,0,0,1,7.72-16.61,308.65,308.65,0,0,1,24.29-36c.09-.12.15-.26.27-.45,1.36,1.81,2.64,3.46,3.89,5.14a301.88,301.88,0,0,1,19.93,29.92,103.73,103.73,0,0,1,8.37,17.58,29,29,0,0,1,1.9,9,32,32,0,0,1-3.27,15C108.5,122.51,100,128.9,88.38,131,87.24,131.2,86.07,131.29,84.91,131.44Zm-2.72-12.9h.52a3.44,3.44,0,0,0,3.37-4.13,3.5,3.5,0,0,0-3.6-2.78A13.88,13.88,0,0,1,72.24,107a14.26,14.26,0,0,1-3.78-9.69,3.42,3.42,0,1,0-6.83.18,25,25,0,0,0,.35,3.77A21.13,21.13,0,0,0,82.19,118.54Z"/><path class="cls-1" d="M33,59.21c.28-1.29.5-2.59.87-3.86A53.86,53.86,0,0,1,38.34,45a199.94,199.94,0,0,1,17.4-26.12c.06-.09.14-.17.25-.3l1.18,1.53A226.2,226.2,0,0,1,70.61,39.68a.76.76,0,0,1,0,1A274.24,274.24,0,0,0,52.24,69c0,.09-.1.16-.17.29a9,9,0,0,1-3.43-2.44,9.57,9.57,0,0,1-2.44-6.36A2.3,2.3,0,0,0,44,58.11a2.21,2.21,0,0,0-2.39,1.73,7.65,7.65,0,0,0,0,2.34,14.12,14.12,0,0,0,7.89,11.05l.28.16L46.2,81.18a22.2,22.2,0,0,1-6-4.06A22.91,22.91,0,0,1,33.1,63c0-.34-.09-.67-.13-1Z"/></svg>