<svg id="Layer_1" data-name="Layer 1" xmlns="http://www.w3.org/2000/svg" viewBox="0 0 150 150"><defs><style>.cls-1{fill:#8da4ac;}</style></defs><path class="cls-1" d="M121.78,116.83H28.36c.44-1.22.85-2.39,1.27-3.55C36,95.56,42.24,77.81,48.71,60.14c3.2-8.74,6.78-17.33,10.16-26A1,1,0,0,1,60,33.35q14.57,0,29.13,0a1.14,1.14,0,0,1,1.22.75,306.58,306.58,0,0,1,13.1,31c4.72,13.08,9.24,26.22,13.86,39.33,1.38,3.9,2.8,7.79,4.2,11.68C121.63,116.32,121.68,116.53,121.78,116.83Zm-46.8-3h5.85c.61,0,1.06-.16,1-.94q-.46-5.58-.89-11.17c0-.62-.31-.91-.89-.91l-10.48.14a.78.78,0,0,0-.86.85c-.15,3.66-.33,7.31-.49,11,0,.92.13,1.07,1.08,1.08Zm-.33-20.38v-.15H79.2c1,0,1.11-.14,1-1.08-.2-3.22-.44-6.43-.64-9.65,0-.62-.39-.79-.91-.78q-4,.06-8,.15c-.54,0-.82.25-.85.85-.18,3.19-.4,6.38-.6,9.57,0,.92.12,1.09,1.05,1.09Zm0-18v-.15c1.19,0,2.38,0,3.58,0,.74,0,1-.31.87-1s-.1-1.35-.14-2l-.36-5.92c0-.5-.1-.92-.76-.9-2,0-4.07.06-6.1.08a.72.72,0,0,0-.83.77q-.27,4.19-.58,8.35c0,.64.26.8.82.79C72.31,75.36,73.47,75.37,74.64,75.37Zm.1-13.51v-.12h2.84c.51,0,.73-.21.69-.75-.16-2.32-.29-4.65-.48-7,0-.22-.35-.6-.54-.6-1.63,0-3.26,0-4.88,0a.77.77,0,0,0-.55.53c-.21,2.41-.36,4.81-.54,7.22,0,.53.23.64.69.63C72.89,61.84,73.81,61.86,74.74,61.86Zm.05-13v0c.7,0,1.41,0,2.11,0a.79.79,0,0,0,.51-.57q-.15-2.67-.42-5.34a.81.81,0,0,0-.55-.56c-1.08-.05-2.17-.05-3.25,0a.78.78,0,0,0-.55.49c-.16,1.81-.26,3.62-.4,5.42,0,.48.16.62.6.61C73.49,48.85,74.14,48.87,74.79,48.87Zm1.76-10c0-.11.09-.16.09-.21l-.3-2.9c-.13-1.41-.13-1.41-1.57-1.41a8.5,8.5,0,0,0-1.13,0c-.18,0-.47.18-.47.3-.11,1.39-.17,2.78-.24,4.2Z"/><path class="cls-1" d="M51.93,33.28c-.82,2-1.55,3.75-2.27,5.52L19.87,112c-.59,1.43-1.16,2.86-1.79,4.27-.1.23-.47.54-.64.5a20.25,20.25,0,0,1-4-1.1c-2-1-2.49-2.55-1.6-4.6,6.3-14.52,12.72-29,18.84-43.58,4.44-10.57,8.49-21.31,12.68-32a2,2,0,0,1,1.49-1.33,20,20,0,0,1,2.3-.48C48.64,33.54,50.18,33.43,51.93,33.28Z"/><path class="cls-1" d="M97.52,33.17c2.27.34,4.54.67,6.8,1a2.35,2.35,0,0,1,1.84,1.61q16,37.5,32.07,75a3.53,3.53,0,0,1-1.43,4.78,8.49,8.49,0,0,1-4.16,1.22c-.19,0-.5-.33-.61-.58-1.48-3.57-3-7.14-4.41-10.73-6-14.82-11.81-29.7-17.94-44.46-3.76-9-8-17.89-12-26.82-.11-.24-.21-.49-.32-.73Z"/></svg>