<?xml version="1.0" encoding="utf-8"?>
<!-- Generator: Adobe Illustrator 25.2.0, SVG Export Plug-In . SVG Version: 6.00 Build 0)  -->
<svg version="1.1" xmlns="http://www.w3.org/2000/svg" xmlns:xlink="http://www.w3.org/1999/xlink" x="0px" y="0px"
	 viewBox="0 0 150 150" style="enable-background:new 0 0 150 150;" xml:space="preserve">
<style type="text/css">
	.st0{fill:#9BF70B;}
	.st1{fill:none;}
	.st2{fill:#8DA4AC;}
</style>
<g id="Layer_1">
</g>
<g id="Layer_2">
	<polygon class="st2" points="131.6,53.7 131.6,46.6 115.5,36.1 107.6,36.1 105.2,31.6 86.1,22.7 79.2,28.2 71.2,25.3 52.9,24.6 
		51.2,34.6 36,38.2 36.3,44.7 22.9,46.7 23.1,52.4 20,53.7 	"/>
	<path class="st2" d="M45,113.2c-4.4,0-8,3.6-8,8s3.6,8,8,8s8-3.6,8-8S49.4,113.2,45,113.2z M45,125c-2.1,0-3.8-1.7-3.8-3.8
		c0-2.1,1.7-3.8,3.8-3.8c2.1,0,3.8,1.7,3.8,3.8C48.8,123.3,47.1,125,45,125z"/>
	<path class="st2" d="M32.2,116.9c-2.4,0-4.3,1.9-4.3,4.3v0c0,2.4,1.9,4.3,4.3,4.3h4.7c-0.7-1.3-1.1-2.7-1.1-4.3
		c0-1.6,0.4-3.1,1.1-4.4H32.2z"/>
	<path class="st2" d="M133.8,55H77h-1.9h-0.2h-1.3H16.2c-2,0-3.7,1.7-3.7,3.7v0c0,2,1.7,3.7,3.7,3.7h1.6l13,50.5h7.4
		c1.7-1.8,4.1-3,6.8-3c2.7,0,5.1,1.2,6.8,3h21.8h1.3h0.2H77h21.2c1.7-1.8,4.1-3,6.8-3c2.7,0,5.1,1.2,6.8,3h7.4l13-50.5h1.6
		c2,0,3.7-1.7,3.7-3.7v0C137.6,56.7,135.9,55,133.8,55z"/>
	<path class="st2" d="M105,113.2c-4.4,0-8,3.6-8,8s3.6,8,8,8c4.4,0,8-3.6,8-8S109.4,113.2,105,113.2z M105,125
		c-2.1,0-3.8-1.7-3.8-3.8c0-2.1,1.7-3.8,3.8-3.8c2.1,0,3.8,1.7,3.8,3.8C108.7,123.3,107.1,125,105,125z"/>
	<path class="st2" d="M117.8,116.9h-4.7c0.7,1.3,1.1,2.8,1.1,4.4c0,1.5-0.4,3-1.1,4.3h4.7c2.4,0,4.3-1.9,4.3-4.3v0
		C122.1,118.9,120.2,116.9,117.8,116.9z"/>
	<path class="st2" d="M77,116.9h-1.9h-0.2h-1.8h-20c0.7,1.3,1.1,2.8,1.1,4.4c0,1.5-0.4,3-1.1,4.3h20h1.8h0.2H77h19.9
		c-0.7-1.3-1.1-2.7-1.1-4.3c0-1.6,0.4-3.1,1.1-4.4H77z"/>
</g>
</svg>
