<svg id="Layer_1" data-name="Layer 1" xmlns="http://www.w3.org/2000/svg" viewBox="0 0 250 250"><defs><style>.cls-1{fill:#8da4ac;}</style></defs><path class="cls-1" d="M116.86,205.36c-3.76-1.79-3.32-3.42-3-6.48.54-5.19,1.16-10.37,1.75-15.55s1.19-10.36,1.77-15.54q1-9,2-18c.27-2.43.55-4.86.85-7.53h-31c-4.44,0-6.56-3.51-4.57-7.5l25.33-50.89q8.84-17.74,17.65-35.5A7.48,7.48,0,0,1,131,44.64h1.89c2.82,1.22,3.69,2.47,3.42,5.7-.35,4.1-.92,8.18-1.39,12.27q-.87,7.53-1.72,15.07-.85,7.38-1.7,14.76-.89,7.77-1.76,15.54c-.09.77-.22,1.54-.37,2.58h32c4.22,0,6,2.78,4.06,6.55q-18.47,36.38-37,72.74c-2,3.94-4,7.86-6,11.81a7.45,7.45,0,0,1-3.39,3.7Z"/><path class="cls-1" d="M135.29,195.24l2-3.93c2.57-5.06,5.12-10.13,7.74-15.16a3.59,3.59,0,0,1,1.58-1.55,54.32,54.32,0,0,0,24.73-21.79,53.95,53.95,0,0,0,.44-54.74,53.62,53.62,0,0,0-28.24-23.79c-.91-.35-1.37-.69-1.23-1.75.67-5.27,1.29-10.55,1.93-15.83,27.93,7,52.55,34.68,51.93,69C195.39,168,161.76,192.4,135.29,195.24Z"/><path class="cls-1" d="M105.87,193.48c-32.58-9-55.21-40.39-51.68-75.2,4-39,35.4-60.72,60.66-63.49-.68,1.37-1.33,2.66-2,4-2.48,5-4.92,10-7.47,15a4.07,4.07,0,0,1-1.83,1.7c-15.32,7-25.76,18.49-30.4,34.73-4.86,17-1.85,32.82,8.55,47.1a50.65,50.65,0,0,0,24.39,18.29c2,.73,1.51,1.86,1.35,3.23C106.91,183.61,106.41,188.48,105.87,193.48Z"/></svg>