<svg id="Layer_1" data-name="Layer 1" xmlns="http://www.w3.org/2000/svg" viewBox="0 0 250 250"><defs><style>.cls-1{fill:#8da4ac;}</style></defs><path class="cls-1" d="M154.18,104.66c-9.2-20-13.81-40.74-9.29-63.07,12,19.25,15,40.21,13.44,62.29.33.13.68.3,1,.42a6.35,6.35,0,0,1,4.64,5.5c.13.91.43,1.18,1.3,1.24a113,113,0,0,1,41.51,11.48c6.25,3.09,11.62,7.48,17.12,11.81-7.24,0-14.45-.16-21.53-1.82a113.73,113.73,0,0,1-20.63-7,110.2,110.2,0,0,1-19-10.84c-2.6,2.79-5.58,3.31-9,1.67-13,18-28.86,32.29-50.62,39.54.34-.62.56-1.07.82-1.51,10.61-18.47,26.42-31.11,45.31-40.25,1.26-.61,1.86-1.06,1.48-2.67C150.24,109,151.33,107.11,154.18,104.66Z"/><path class="cls-1" d="M166.21,208.39h-17c0-.56,0-1.06,0-1.55q.84-11.58,1.7-23.15.84-11.35,1.66-22.7,1-13.63,2-27.27c.26-3.5.55-7,.71-10.52.05-1.24.46-1.69,1.72-1.64,3.28.14,2.76-.49,3,2.85,1,13.2,1.92,26.41,2.88,39.61q1.51,20.8,3.06,41.59C166,206.51,166.13,207.41,166.21,208.39Z"/><path class="cls-1" d="M60.73,188c-1.15,6.8-2.29,13.55-3.45,20.35H26.05c.88-2.6,1.73-5.09,2.57-7.59,1.33-3.9,2.66-7.79,4-11.7.25-.74.49-1.24,1.43-1.24,8.61,0,17.22,0,25.83,0A6.06,6.06,0,0,1,60.73,188Z"/><path class="cls-1" d="M69.41,188H97.18c.36,6.79.72,13.53,1.08,20.38H67C67.82,201.55,68.61,194.8,69.41,188Z"/><path class="cls-1" d="M108,208.41c-.71-6.82-1.4-13.53-2.11-20.37a10.69,10.69,0,0,1,1.29-.15c8.36,0,16.72,0,25.07-.06a1.54,1.54,0,0,1,1.78,1.36c1.61,6,3.28,12.07,4.93,18.11a8.07,8.07,0,0,1,.15,1.11Z"/><path class="cls-1" d="M60.53,126.1c.39-7.22,3.45-12.78,9.69-16.23,7-3.86,14-3.49,20.6,1.1A17.92,17.92,0,0,1,98.7,126.1Z"/><path class="cls-1" d="M95.84,162.19c.36,6.82.71,13.56,1.06,20.41H70c.81-6.86,1.61-13.61,2.41-20.41Z"/><path class="cls-1" d="M34.78,182.61c2.14-6.31,4.28-12.44,6.27-18.62a2.29,2.29,0,0,1,2.66-1.9c6.51.09,13,0,19.54,0h1.84c-.48,2.93-.92,5.67-1.37,8.41q-.9,5.34-1.81,10.67c-.14.82-.21,1.54-1.41,1.53-8.3,0-16.6,0-24.89,0C35.41,182.73,35.21,182.67,34.78,182.61Z"/><path class="cls-1" d="M103.28,162.1c6.46,0,12.66,0,18.87,0,1.46,0,3.29-.38,4.27.34s.93,2.57,1.31,3.93q2,7.27,4,14.57c.13.47.21,1,.35,1.58-.67.05-1.17.11-1.66.11-7.8,0-15.59,0-23.38.09-1.37,0-1.8-.36-1.92-1.76-.47-5.48-1.12-10.94-1.68-16.4C103.34,163.82,103.33,163.06,103.28,162.1Z"/><path class="cls-1" d="M95.57,156.76H73.08c.8-6.77,1.59-13.47,2.39-20.27h19C94.86,143.21,95.21,149.93,95.57,156.76Z"/><path class="cls-1" d="M43.57,156.71c2.3-6.78,4.57-13.5,6.85-20.21h19c-.49,3-1,5.93-1.44,8.83-.58,3.46-1.19,6.91-1.75,10.37-.13.76-.36,1.18-1.24,1.18-6.87,0-13.75,0-20.62,0A4.82,4.82,0,0,1,43.57,156.71Z"/><path class="cls-1" d="M49.14,108.8,61,110.07l-4.83,8.28Z"/><path class="cls-1" d="M84.51,102.2h-9.7l4.85-10.83C81.37,95.18,82.94,98.68,84.51,102.2Z"/><path class="cls-1" d="M71.69,103l-8.37,4.78c-.41-3.73-.83-7.58-1.29-11.75Z"/><path class="cls-1" d="M96,107.77,87.63,103l9.62-7C96.81,100.27,96.41,104,96,107.77Z"/><path class="cls-1" d="M103.16,118.33l-4.85-8.26,11.87-1.27Z"/><path class="cls-1" d="M55.55,121.35l-.45,4.73H44.82Z"/><path class="cls-1" d="M114,126.09h-9.75l-.53-4.74,10.3,4.51Z"/></svg>