<?xml version="1.0" encoding="utf-8"?>
<!-- Generator: Adobe Illustrator 25.2.0, SVG Export Plug-In . SVG Version: 6.00 Build 0)  -->
<svg version="1.1" id="Layer_1" xmlns="http://www.w3.org/2000/svg" xmlns:xlink="http://www.w3.org/1999/xlink" x="0px" y="0px"
	 viewBox="0 0 250 250" style="enable-background:new 0 0 250 250;" xml:space="preserve">
<style type="text/css">
	.st0{fill:#8DA4AC;}
</style>
<path class="st0" d="M119.5,110.7c-8.8,9.1-10.1,34.8-3.5,62.7c-17.2-4.8-31.2-13.2-39-29.7c-6.8-14.3-6.1-29.3-3.1-44.3
	c0.7-3.4,1.7-6.8,2.9-11.2c3.2,7.3,5.9,13.6,12.6,17.8c3.1-14,7.6-27.1,14.9-39.1c7.6-12.1,16.9-22.2,31-28.1
	c-1.9,21.3,5,39.1,19.4,54.2c-1.8-11.1,1-20.3,9.5-26.8c3,11.8,6,23.5,8.9,35.2c3.6,14.6,4.1,29-2.6,43.5
	c11.7,6.4,12.2,17.3,12.6,29c0.5,13.9-5.7,22.7-17.5,27.9c-27.6,12.1-55.4,12.2-82.7-0.9c-10.6-5.1-16.9-13.3-15.6-25.9
	c0.5-4.9-0.2-10,0.7-14.8c0.6-3.3,2.9-6.3,4.7-9.4c0.2-0.4,1.6-0.2,2.4-0.4c0,0.7,0,1.5-0.1,2.2c0,0.2-0.3,0.4-0.5,0.6
	c-7.7,9.1-3.1,18.1,3.8,23.5c8.3,6.6,18,9.7,28.3,11.5c20.5,3.4,40.5,2.2,59.3-7.6c2.7-1.4,5.2-3.1,7.4-5.2c9.9-9,8-21.3-3.6-27.2
	l-18.8,19.4l-1.5-0.6c0-1.4,0-2.8,0-4.2c0.1-9.2-3.6-18-10.2-24.4c-2.2-2.2-4.3-4.2-6.6-6.2C125.8,126.8,120.9,119.9,119.5,110.7z
	 M178.9,174.9c-15,15-34.2,18.5-54,18.5c-19.8,0-38.9-3.5-54.2-18.8c-0.8,6.6-0.3,12.2,5,17.1c0.2-2.6,0.3-4.5,0.5-6.5
	c7.2,2.9,7.8,3.5,7.9,10.5c0,3.4,2.1,4,4.9,4.7l0.4-7.9c8.2,1.2,8.6,1.7,9.4,9.4c0.3,3.8,3.1,2.9,5.5,3.3c0.2-2.9,0.4-5.6,0.7-8.6
	l9.1,1.5c0,2.6-0.3,4.8,0.1,6.9c0.7,3.5,3.4,1.8,6,1.9v-8.6h9.2c0.1,3.1,0.3,5.9,0.4,9c1.8-0.2,4.4,0.1,4.6-0.5
	c0.8-2.9,1.4-5.9,1.8-8.9l8.3-1.2c0.2,3.2,0.4,5.8,0.5,8.6c4,0.1,6.1-0.8,5.8-5.1c-0.2-1.9,0.4-4.6,1.6-5.6c1.9-1.4,4.8-1.7,7.4-2.5
	c0.2,3.1,0.3,5.7,0.4,8.6c3.4-0.5,4.9-1.8,4.8-5.2c-0.1-6.7,0.8-7.7,8-10.4l0.4,6.9C178.7,188.7,180.8,182,178.9,174.9L178.9,174.9z
	"/>
<path class="st0" d="M128.2,183.1c-14.8-0.4-25.9-1.7-36.2-6.7c-0.7-0.2-1.3-0.5-1.8-1c-1-1.1-1.8-2.3-2.8-3.5
	c1.4,0.2,2.9,0.1,4.1,0.7c12.2,6.5,25.3,7.7,38.7,7c10.3-0.5,20.4-2.3,29.5-7.9c0.6-0.4,1.8,0.1,2.7,0.2c-0.3,0.8-0.5,2-1.1,2.3
	c-4.8,2.2-9.6,4.9-14.7,6.1C139.6,181.9,132.2,182.5,128.2,183.1z"/>
</svg>
