<svg id="Layer_1" data-name="Layer 1" xmlns="http://www.w3.org/2000/svg" viewBox="0 0 250 250"><defs><style>.cls-1{fill:#8da4ac;}</style></defs><path class="cls-1" d="M198.8,95.83A80.11,80.11,0,0,0,44.9,127v.25c0,.06,0,.12,0,.18,0,.27,0,.54,0,.81,0,.08,0,.17,0,.25,0,.33,0,.66,0,1,0,.1,0,.19,0,.28s0,.46,0,.7,0,.29,0,.44l0,.52.06,1a2.28,2.28,0,0,0,0,.26c0,.23,0,.47,0,.7v.1a80,80,0,0,0,1.93,12.27l0,.14c.05.22.11.45.16.67s.13.53.2.79.12.43.17.65.05.19.08.29a2.45,2.45,0,0,1,.08.29A79.79,79.79,0,0,0,60.15,174,81,81,0,0,0,72,187.1l.2.18.58.5.54.46.42.35c.3.25.61.51.92.75l0,0c.83.67,1.68,1.33,2.54,2A79.85,79.85,0,0,0,99,202.79a5.38,5.38,0,1,0,3.49-10.17,69.22,69.22,0,0,1-20.77-11.41,3,3,0,0,0-.27-.23,69.44,69.44,0,0,1-9-8.76l-.25-.29-.4-.47a69.36,69.36,0,0,1-16-41.59,1.27,1.27,0,0,0,0-.2l0-1.06v-.3c0-.41,0-.82,0-1.23a69.34,69.34,0,1,1,106.49,58.49,24,24,0,0,1-18.74,3,22.94,22.94,0,0,1-14.56-11.23,16,16,0,0,1-1.34-3,1.8,1.8,0,0,1,1.73-2.33h0a7.82,7.82,0,0,0,3.49-.82,23.4,23.4,0,0,0,13-20.94v-22a3.08,3.08,0,0,1,3.1-3.06,2.57,2.57,0,0,0,2.53-2.57v-6a2.57,2.57,0,0,0-2.57-2.57H140V87.39a5.32,5.32,0,0,0-5.33-5.34,5.23,5.23,0,0,0-5.12,5.23V114H115.08V87.28a5.23,5.23,0,1,0-10.46,0V114H95.85a2.57,2.57,0,0,0-2.57,2.57v6a2.57,2.57,0,0,0,2.57,2.57h0a3.07,3.07,0,0,1,3.07,3.06V150a23.7,23.7,0,0,0,13.42,21.38,6.26,6.26,0,0,0,2.75.63,1.3,1.3,0,0,1,1.31,1.21,23,23,0,0,0,3,9.38,33.52,33.52,0,0,0,9.17,10.6A33.87,33.87,0,0,0,140.75,199a34.62,34.62,0,0,0,27.17-4.35A80.1,80.1,0,0,0,205.1,127,79.58,79.58,0,0,0,198.8,95.83Zm-82.14,63.09a.57.57,0,0,1-1-.53l3.43-11.7a.57.57,0,0,0-.55-.73h-7.7a.57.57,0,0,1-.43-1L126,127.24a.57.57,0,0,1,1,.53l-3.43,11.7a.57.57,0,0,0,.55.73h7.7a.57.57,0,0,1,.43,1Z"/></svg>