<?xml version="1.0" encoding="utf-8"?>
<!-- Generator: Adobe Illustrator 25.2.0, SVG Export Plug-In . SVG Version: 6.00 Build 0)  -->
<svg version="1.1" id="Layer_1" xmlns="http://www.w3.org/2000/svg" xmlns:xlink="http://www.w3.org/1999/xlink" x="0px" y="0px"
	 viewBox="0 0 250 250" style="enable-background:new 0 0 250 250;" xml:space="preserve">
<style type="text/css">
	.st0{fill:#8DA4AC;}
</style>
<path class="st0" d="M122.4,66.4v123.1h-14.7c-3.8,0-3.9,0-4.7-3.7c-1.4-7.3-4.5-14.3-9-20.2c-3.1-4-6.1-8.1-9.3-12.1
	c-12.8-16-16.3-33.9-9-53s21.5-30,41.6-33.5C118.9,66.7,120.5,66.6,122.4,66.4z"/>
<path class="st0" d="M127.6,189.5v-32.6c8.6-0.9,16.4-5.6,21.2-12.8c3.5-5.2,5.1-11.3,4.7-17.5c-0.7-13.5-9.6-22.8-25.9-26.9V67.1
	c2.1,0,4.2-0.1,6.2,0.1c0.5,0,1.1,0.9,1.2,1.5c0.7,3.2,1.4,6.5,2,9.7c0.1,1,0.8,1.8,1.8,2.1c3.4,1.3,6.8,2.7,10.1,4.2
	c0.9,0.5,2,0.4,2.7-0.2c2.6-1.8,5.3-3.5,7.9-5.3c0.8-0.8,2.1-0.8,2.9-0.1c0.1,0.1,0.2,0.2,0.3,0.3c3.6,3.8,7.3,7.4,11.1,11.1
	c1,0.6,1.2,2,0.6,2.9c-0.1,0.1-0.2,0.3-0.3,0.4c-1.9,2.6-3.6,5.2-5.3,8c-0.4,0.8-0.4,1.7-0.2,2.5c1.3,3.5,2.7,6.9,4.3,10.2
	c0.4,0.8,1.1,1.4,1.9,1.6c3.2,0.8,6.4,1.4,9.6,1.9c1.3,0.2,1.9,0.7,1.8,2.1c-0.1,5.4-0.1,10.8,0,16.3c0,1.3-0.5,1.8-1.7,2
	c-3.3,0.6-6.5,1.2-9.8,2c-0.8,0.3-1.5,0.9-1.8,1.7c-1.5,3.3-2.8,6.8-4.3,10.1c-0.5,0.8-0.5,1.9,0.1,2.7c1.9,2.7,3.7,5.5,5.6,8.3
	c0.6,0.7,0.6,1.8-0.1,2.4c-0.1,0-0.1,0.1-0.2,0.1c-3.9,3.8-7.7,7.6-11.5,11.5c-0.6,0.8-1.7,1-2.4,0.4c-0.1,0-0.1-0.1-0.2-0.2
	c-2.8-1.9-5.6-3.8-8.5-5.6c-0.7-0.3-1.5-0.4-2.3-0.1c-3.5,1.3-6.9,2.7-10.3,4.3c-0.8,0.4-1.4,1-1.7,1.9c-0.8,3.1-1.4,6.3-2,9.5
	c-0.3,1.6-0.9,2-2.4,1.9C131.1,189.4,129.4,189.5,127.6,189.5z"/>
<path class="st0" d="M143,210.2c-1.5,5.6-6.2,9.9-11.9,10.9c-0.5,0-1.1-0.2-1.4-0.6c-0.6-1.2-2-1.9-3.4-1.8c-0.9,0.1-1.8,0.1-2.6,0
	c-2-0.2-3.5,0.4-4.2,2.3c-5.9-0.6-11.5-5.5-12.4-10.8L143,210.2z"/>
<path class="st0" d="M144.8,196.7l-0.5,6.2h-38.6l-0.5-6.2H144.8z"/>
<path class="st0" d="M90.2,58.2c-0.6,0.7-1.2,1.8-1.9,1.9c-1.1,0.1-2.2-0.2-3-1c-1.3-1.9-2.5-3.9-3.5-5.9c-1.5-2.6-3.1-5.3-4.5-7.9
	c-1-1.7-0.7-3.1,0.6-3.8c1.3-0.7,2.7-0.3,3.7,1.4c2.6,4.4,5.1,8.9,7.7,13.3C89.6,56.8,89.8,57.3,90.2,58.2z"/>
<path class="st0" d="M173.6,43.2c-0.2,0.7-0.5,1.4-0.8,2c-2.6,4.5-5.1,9-7.8,13.5c-1,1.7-2.4,2.2-3.7,1.3c-1.3-0.9-1.5-2.3-0.7-3.7
	l7.8-13.6c0.7-1.2,1.7-1.9,3-1.3C172.3,41.7,172.9,42.6,173.6,43.2z"/>
<path class="st0" d="M76.4,202.8c0.3-0.8,0.7-1.6,1.1-2.4c2.5-4.3,5-8.6,7.5-13c0.8-1.5,1.9-2.3,3.6-1.5c1.5,0.7,1.7,2.2,0.7,4
	c-2.6,4.5-5.1,9.1-7.9,13.5c-0.7,0.8-1.7,1.3-2.8,1.3C77.8,204.6,77.1,203.4,76.4,202.8z"/>
<path class="st0" d="M159.8,187.5c0.6-0.6,1.3-1.7,2.1-1.8c1.1,0,2.1,0.5,2.8,1.3c2,3.1,3.7,6.3,5.5,9.4c0.9,1.5,1.8,3,2.6,4.6
	c0.7,1.1,0.5,2.5-0.6,3.2c-0.1,0.1-0.3,0.2-0.4,0.2c-1.1,0.7-2.5,0.3-3.1-0.7c-0.1-0.1-0.1-0.2-0.2-0.3c-2.8-4.7-5.5-9.5-8.2-14.2
	C160.2,188.7,160,188.1,159.8,187.5z"/>
<path class="st0" d="M45.3,171.5c-0.6-0.6-1.6-1.1-1.9-1.9c-0.5-1.2,0-2.5,1.2-3c0,0,0.1,0,0.1,0l7.6-4.4c2.1-1.2,4.2-2.5,6.4-3.6
	c1-0.8,2.5-0.6,3.3,0.4c0.1,0.1,0.2,0.2,0.2,0.3c0.7,1.1,0.5,2.6-0.6,3.3c-0.1,0.1-0.3,0.2-0.5,0.3c-4.6,2.6-9.1,5.3-13.7,7.9
	C46.7,171,46,171.3,45.3,171.5z"/>
<path class="st0" d="M204.7,171.5c-0.7-0.2-1.4-0.5-2-0.8c-4.5-2.6-8.9-5.1-13.4-7.7c-1.6-1-2.2-2.4-1.3-3.7c1-1.5,2.3-1.5,3.7-0.7
	l13.7,7.9c1.2,0.5,1.8,1.8,1.3,3c0,0,0,0.1,0,0.1C206.3,170.4,205.3,170.9,204.7,171.5z"/>
<path class="st0" d="M62.3,85c0.1,2.3-1.8,3.6-3.5,2.6c-4.9-2.7-9.8-5.5-14.6-8.4c-1.1-0.6-1.5-1.9-0.9-3c0.1-0.1,0.2-0.3,0.3-0.4
	c0.7-1.1,2.2-1.5,3.3-0.8c0.1,0.1,0.2,0.1,0.3,0.2l13.7,7.9c0.2,0.1,0.5,0.3,0.7,0.5C61.9,84.1,62.2,84.7,62.3,85z"/>
<path class="st0" d="M189.7,88.1c-0.6-0.6-1.8-1.1-1.9-1.8c-0.1-1.1,0.3-2.1,1-2.9c2.3-1.6,4.9-2.9,7.3-4.4c2.2-1.3,4.5-2.6,6.7-3.8
	c1.1-0.8,2.7-0.5,3.4,0.7c0.8,1.1,0.5,2.7-0.7,3.4c-0.1,0.1-0.2,0.1-0.3,0.2c-4.6,2.7-9.1,5.3-13.7,7.9
	C191,87.7,190.3,87.9,189.7,88.1z"/>
<path class="st0" d="M41.5,125.5c-2.6,0-5.1,0-7.7,0c-1.6,0-2.8-0.7-2.9-2.5s1.1-2.5,2.8-2.5h15.7c1.6,0,2.7,0.7,2.8,2.3
	c0.1,1.6-1,2.6-2.7,2.6C46.9,125.4,44.2,125.4,41.5,125.5L41.5,125.5z"/>
<path class="st0" d="M208.5,120.5h7.7c1.6,0,2.8,0.6,2.9,2.4c0,1.8-1.2,2.6-2.8,2.6c-5.3,0-10.6,0-15.8,0c-1.7,0-2.8-0.8-2.8-2.6
	c0-1.7,1.3-2.4,2.9-2.4C203.2,120.5,205.8,120.5,208.5,120.5z"/>
<path class="st0" d="M122.6,39.6c0-2.6,0-5.1,0-7.7c0-1.7,0.7-2.8,2.4-2.9c1.5-0.1,2.6,1.1,2.6,3c0,5.1,0,10.3,0,15.4
	c0,2-0.9,3-2.5,3s-2.4-1-2.4-3.1C122.5,44.7,122.6,42.1,122.6,39.6z"/>
</svg>
