<?xml version="1.0" encoding="utf-8"?>
<!-- Generator: Adobe Illustrator 25.2.0, SVG Export Plug-In . SVG Version: 6.00 Build 0)  -->
<svg version="1.1" id="Layer_1" xmlns="http://www.w3.org/2000/svg" xmlns:xlink="http://www.w3.org/1999/xlink" x="0px" y="0px"
	 viewBox="0 0 250 250" style="enable-background:new 0 0 250 250;" xml:space="preserve">
<style type="text/css">
	.st0{fill:#8DA4AC;}
</style>
<g>
	<path class="st0" d="M86.2,147.8c-14.8,0-29.7,0-44.5,0c-0.9,0-1.8-0.2-2.7-0.6c0,0-0.2,0-0.2-0.1c-0.3-0.5-0.5-1.1-0.7-1.7
		c0-0.4,0-0.9,0-1.3V72.3c0-0.6,0-1.2,0-1.8s-0.2-1,0.4-1.3l0,0c0.2-0.6,0.4-1.2,0.6-1.9c0.1-0.3,0.3-0.5,0.6-0.7
		c0.9-0.6,1.4-1.5,2.4-1.9c0.6-0.2,1.3-0.2,1.8-0.5c0.9-0.4,1.9-0.6,2.8-0.4c26.5,0,53,0,79.5,0c0.5,0,1.2-0.3,1.6,0.4
		c0,0,0.2,0.1,0.3,0c1-0.2,1.7,0.5,2.5,0.8c0.3,0.1,0.5,0.5,0.8,0.8c0.2,0.3,0.4,0.5,0.7,0.7c0.4,0.4,0.8,0.8,1,1.4
		c0.3,0.6,0.3,1.4,0.6,1.8c0.7,0.8,0.4,1.6,0.4,2.4c0,14.1,0,28.2,0,42.3c0,10.1,0,20.1,0,30.2c0.1,1-0.3,2-1.1,2.6
		c-0.4,0.3-1,0.5-1.5,0.6c-0.5,0.1-0.9,0.1-1.4,0L86.2,147.8z M73.3,119.3H85c1.1,0,1.5,0.3,1.5,1.4c0,2.2,0,4.4,0,6.7
		c0,1.1-0.2,2.2,1,3.1c0.5,0.4,1.1,0.7,1.7,0.8c1.5,0.2,2.4-0.9,3.3-1.8c0.4-0.4,0.8-0.9,1.2-1.4c0.8-0.8,1.7-1.5,2.6-2.3
		c0.8-0.8,1.2-1.4,1.8-2.1c0.6-0.7,1.1-1.1,1.6-1.6c0.2-0.2,0.4-0.4,0.6-0.6c0.5-0.4,1-0.8,1.4-1.2c0.4-0.4,0.9-1,1.3-1.5
		s1-1,1.5-1.6c0.2-0.2,0.4-0.5,0.6-0.7c0.5-0.4,1-0.8,1.4-1.2c0.6-0.6,1.2-1.4,1.8-2c0.6-0.6,1.4-1.2,2.1-1.8s1.2-1.4,1.8-2
		c0.6-0.6,1-1.3,1-2.1c0-1-0.5-2-1.2-2.7c-0.1-0.1-0.3-0.2-0.4-0.3c-0.2-0.3-0.4-0.6-0.7-0.9c-0.5-0.4-1-0.8-1.5-1.3
		c-0.5-0.4-0.8-1-1.3-1.5c-0.5-0.5-1-0.8-1.5-1.2c-0.6-0.6-1.2-1.4-1.8-2c-0.3-0.2-0.6-0.5-0.9-0.7c-0.3-0.2-0.5-0.4-0.7-0.7
		c-0.6-0.7-1.2-1.3-1.8-2s-1.1-1-1.6-1.6l-0.6-0.6c-0.7-0.6-1.3-1.2-2-1.8c-0.6-0.6-0.8-1-1.3-1.4c-0.6-0.6-1.4-1.2-2-1.8
		c-0.7-0.6-1-1.1-1.6-1.6c-0.2-0.2-0.5-0.4-0.7-0.7c-0.3-0.4-0.6-0.9-1.2-1c-0.1,0-0.3,0-0.3-0.1c-0.1-0.5-0.5-0.4-0.8-0.4
		c-0.8,0.1-1.6,0.4-2.1,0.9c-0.7,0.5-1.1,1.4-1,2.2c0,2.5,0,5,0,7.5c0,1.3,0,1.3-1.3,1.3H62.4c-0.7-0.1-1.5,0.1-2.1,0.5
		c-0.7,0.5-1.2,1.3-1.2,2.1c0,5.8,0,11.6,0,17.5c0,0.9-0.3,1.8,0.4,2.7c0.7,0.9,1.1,1.4,2.1,1.4L73.3,119.3z"/>
	<path class="st0" d="M190.4,167.6c-0.2-1.1-0.3-2.1-0.6-3.1c-0.3-0.9-0.7-1.9-1.1-2.8c-0.3-0.5-0.6-0.9-0.9-1.4
		c-0.1-0.1-0.1-0.2-0.1-0.3c0-0.6-0.5-0.9-0.9-1.3s-0.5-0.7-0.7-1c-0.5-0.6-1-1.2-1.6-1.8c-0.2-0.3-0.4-0.6-0.7-0.8
		c-0.4-0.3-0.8-0.6-1.2-0.9c-0.6-0.4-1.3-0.8-1.8-1.2c-0.6-0.5-1.3-0.8-2-1.1c-0.6-0.3-1.1-0.6-1.6-0.9c-0.1,0-0.2,0-0.3,0
		c-1.5-0.2-2.9-0.7-4.4-0.8c-0.8,0-1.5-0.5-2.4-0.4c-0.9,0.2-1.4,0.3-2.1,0.5c-0.2,0-0.4,0-0.7,0.1c-1.1,0.2-2.3,0.4-3.3,0.7
		c-0.6,0.2-1.1,0.5-1.7,0.9c-0.5,0.3-1.1,0.4-1.7,0.7c-0.5,0.3-0.9,0.5-1.3,0.7s-0.8,0.6-1.2,0.9c-0.3,0.2-0.7,0.5-1,0.8
		c-0.3,0.3-0.5,0.6-0.7,0.9c-0.5,0.5-1,0.8-1.4,1.3c-0.2,0.4-0.5,0.8-0.7,1.2c-0.2,0.3-0.5,0.5-0.7,0.8c-0.2,0.2-0.3,0.4-0.4,0.6
		c-0.3,0.6-0.6,1.1-1,1.7c-0.1,0.1-0.1,0.3-0.1,0.4c-0.1,0.1-0.3,0.4-0.4,0.6c0,0-0.1,0-0.1,0.1c0.2,0.7-0.5,1.1-0.6,1.8
		s0.1,1.2-0.4,1.6c-0.2,0.1-0.1,0.6-0.1,0.9s-0.1,0.5-0.5,0.5H149h-37.9c-1.4,0-1.4,0-1.5-1.4c-0.1-0.3-0.2-0.7-0.4-1
		c0,0,0-0.1,0-0.1c-0.2-0.9-0.4-1.7-0.7-2.5c-0.1-0.2-0.2-0.4-0.3-0.6c0,0-0.1-0.1-0.1-0.1c0-1-0.8-1.7-1.2-2.4
		c-0.3-0.7-0.8-1.4-1.5-1.9c-0.5-0.3-0.8-1-1.2-1.4c-0.2-0.2-0.7-0.3-0.5-0.8c0.1-0.2,0.2-0.3,0.4-0.4c0.2,0,0.5,0,0.7,0h35.7
		c0.8,0,0.9-0.1,0.9-0.9V85c0-0.7,0.1-1.4,0-2.1c0-0.7,0.4-1.3,0.9-1.7c0.2-0.2,0.4-0.4,0.5-0.6c0.5-0.5,1.2-0.9,2-1.1
		c1.7-0.8,3.4-0.4,5.1-0.4c7,0,13.9,0,20.9,0c0.3,0.1,0.6,0.2,0.9,0.3c0.2,0.1,0.5,0.1,0.7,0.1c0.8,0.2,1.6-0.3,2.3,0.5
		c0.1,0.1,0.5,0,0.8,0.1c0.3,0.1,1-0.2,1.2,0.5h0.1c0.6,0.2,1.2,0.4,1.8,0.7c0.5,0.3,1,0.6,1.4,0.9c0.5,0.3,0.9,0.5,1.3,0.7
		c0.3,0.2,0.6,0.3,0.8,0.6c0.6,0.6,1.2,1.4,1.8,2c0.4,0.5,0.9,0.8,1.4,1.3c0.2,0.2,0.4,0.5,0.6,0.8c0.3,0.6,0.7,1.1,1.2,1.5
		c0.1,0,0.1,0.2,0.1,0.2c0.1,0.6,0.6,0.9,0.9,1.4c0.3,0.4,0.5,0.8,0.8,1.2c0.5,0.7,1,1.4,1.5,2c0.1,0.1,0.1,0.2,0.1,0.3
		c0.1,0.6,0.6,1,0.9,1.4c0.4,0.4,0.5,0.9,0.8,1.2c0.5,0.7,0.7,1.6,1.5,2c0.1,0,0.1,0.2,0.1,0.3c0.1,0.6,0.5,0.9,0.9,1.3
		c0.1,0.1,0.1,0.2,0.2,0.2c0.3,0.5,0.6,0.9,0.9,1.4c0.2,0.4,0.5,0.8,0.8,1.2c0.6,0.6,0.6,1.6,1.5,2.1c0.3,0.2,0.4,0.5,0.6,0.8
		c0.3,0.5,0.5,1,0.8,1.5c0.2,0.4,0.5,0.7,0.8,1c0.2,0.2,0.4,0.5,0.6,0.7c0.3,0.5,0.5,1,0.7,1.5c0.1,0.2,0.3,0.3,0.4,0.5
		c0.4,0.9,0.8,1.9,1.3,2.8c0.1,0.2,0.2,0.4,0.3,0.6c0.1,0.1,0.1,0.2,0.1,0.3c0.4,1.4,0.6,2.8,0.6,4.3c0,0.3,0.2,0.6,0.3,0.9
		c0,0.1,0.1,0.3,0.1,0.4c0,0.4,0,0.8,0,1.2v32.1c0,0.9,0,0.9,1,0.9c1.5,0,3,0,4.4,0c0.3,0,0.5,0.1,0.8,0.3c0,0,0.1,0.1,0.1,0.1
		c0.9-0.1,1.3,0.7,1.8,1.2c0.1,0.2,0.2,0.4,0.2,0.6c0,2.8,0,5.6,0,8.4c-0.2,1-0.9,1.7-1.9,1.9c-0.5,0-0.9,0-1.4,0h-19.2L190.4,167.6
		z M170.4,114.8c4.9,0,9.8,0,14.6,0c1.2,0,2.3,0,2.7-1.4c0,0,0.1-0.1,0.1-0.1c0.3-0.7,0.4-1.4,0.1-2.1c-0.5-0.4-0.8-0.9-0.9-1.5
		c0-0.1-0.1-0.2-0.2-0.3c-0.3-0.3-0.6-0.6-0.8-0.9c-0.3-0.3-0.7-0.9-1-1.4c-0.3-0.5-0.5-0.6-0.7-0.9c-0.2-0.3-0.4-0.8-0.7-1.2
		s-0.7-0.9-1-1.3c-0.3-0.5-0.5-0.9-0.8-1.3c-0.5-0.7-1.2-1.2-1.4-2.1c0-0.1-0.1-0.1-0.2-0.2c-0.3-0.4-0.6-0.7-0.9-1.1
		c-0.1-0.1-0.1-0.3-0.2-0.5c-0.3-0.5-0.9-0.8-0.9-1.5c0-0.1-0.1-0.2-0.1-0.2c-0.3-0.2-0.6-0.4-0.8-0.7c-0.6-0.8-1-1.6-1.6-2.4
		c-0.3-0.5-0.8-0.8-1.4-0.9c-6.3,0-12.6,0-18.9,0c-0.6,0-1.3-0.2-1.9,0.5c-0.3,0.5-0.9,0.8-0.9,1.4c0,0.4,0,0.7,0,1.1
		c0,5.3,0,10.6,0,15.8c-0.1,0.3-0.1,0.6,0,1c0.2,0.5,0.3,1.2,0.7,1.4c0.6,0.4,1.4,0.7,2.1,0.7C160.4,114.8,165.4,114.8,170.4,114.8
		L170.4,114.8z"/>
	<path class="st0" d="M185.5,170.6c0,0.9,0,1.8,0,2.7c0.1,0.6-0.1,1.2-0.4,1.7c-0.2,0.1-0.1,0.5-0.2,0.8c-0.1,0.2-0.2,0.4-0.4,0.6
		c0,0.1-0.1,0.1-0.1,0.2c-0.1,0.4-0.3,0.7-0.4,1.1c-0.3,0.8-0.8,1.6-1.3,2.3c-0.2,0.3-0.4,0.5-0.6,0.8c-0.5,0.5-1,1.1-1.5,1.6
		c-0.3,0.2-0.7,0.5-1,0.7c-0.4,0.3-0.8,0.6-1.2,0.9c0,0,0,0.1-0.1,0.1c-0.6,0.1-1.2,0.4-1.7,0.7c-0.7,0.6-1.6,0.2-2.3,0.9
		c-0.2,0.2-0.8,0.1-1.1,0.1c-0.6,0-1.1,0.2-1.7,0.3c-0.8,0.4-1.7,0.3-2.5-0.2c-0.1-0.1-0.3-0.1-0.5-0.1c-0.5,0-1.1,0-1.6-0.1
		c-0.3-0.1-0.5-0.2-0.7-0.3c-0.1,0-0.2-0.1-0.2-0.1c-0.9,0.2-1.5-0.4-2.3-0.6c-0.5-0.2-1-0.5-1.4-0.9c-0.1-0.1-0.2-0.1-0.3-0.2
		c-0.4-0.3-0.9-0.6-1.3-1c-0.2-0.2-0.4-0.4-0.6-0.6c-0.7-0.6-1.4-1.2-2-1.8c-0.3-0.3-0.4-0.9-0.7-1.2c-0.3-0.4-0.5-0.9-0.7-1.3
		c-0.3-0.5-0.6-1-0.8-1.5c-0.5-1.3-0.8-2.6-0.8-4c0-0.2-0.1-0.4-0.1-0.6c-0.1-0.5-0.4-1.2-0.2-1.5c0.3-0.7,0.5-1.4,0.4-2.1
		c0.1-1.1,0.5-2.2,1-3.1c0.3-0.6,0.4-1.2,0.7-1.8c0.3-0.5,0.6-0.9,0.9-1.3c0.4-0.5,0.8-1,1.2-1.5c0.4-0.5,1-0.9,1.5-1.3
		c0.2-0.2,0.3-0.4,0.5-0.5c0.8-0.6,1.7-1.1,2.5-1.6c0.6-0.3,1.3-0.5,1.9-0.7c0.3-0.1,0.5-0.2,0.7-0.3c0.1-0.1,0.3-0.1,0.5-0.1
		c0.6,0,1.2,0,1.8-0.1c0.4,0,0.7-0.3,1-0.3c0.6,0,1.1,0,1.7,0.1c0.2,0,0.4,0.2,0.6,0.2c0.5,0,1.1,0,1.6,0.1s0.9-0.1,1.2,0.4
		c0.1,0,0.1,0,0.2,0c0.9-0.2,1.5,0.5,2.2,0.7c0.5,0.2,0.9,0.5,1.3,0.9c0.4,0.3,0.8,0.5,1.2,0.8c0.4,0.3,0.7,0.6,1,0.9
		c0.3,0.3,0.4,0.5,0.6,0.7c0.9,0.7,1.7,1.6,2.2,2.7c0.3,0.8,0.6,1.5,1.1,2.1c0.6,0.6,0.2,1.5,0.9,2c0.1,0.1,0.1,0.4,0.1,0.6
		C185.4,168.4,185.5,169.5,185.5,170.6L185.5,170.6z M170.3,178.1h1.7c0.6-0.1,1.1-0.2,1.6-0.5c1.1-0.4,1.7-1.3,2.5-1.9
		c0.2-0.2,0.4-0.4,0.5-0.7c0.3-0.6,0.4-1.2,0.7-1.7l0.1-0.1c0.2-0.2,0.3-0.5,0.3-0.7c0.1-0.6,0.1-1.2,0-1.8c-0.1-1,0.2-2-0.4-2.9
		c-0.4-0.6-0.6-1.5-1.2-2c-0.6-0.7-1.2-1.3-2-1.8c-0.8-0.6-1.8-0.9-2.8-0.8c-0.2,0-0.5,0-0.7-0.2c-0.3-0.3-0.4-0.3-0.7,0
		c-0.1,0.1-0.2,0.1-0.3,0.1c-0.9,0-1.8,0.2-2.6,0.6c-0.7,0.4-1.3,0.9-1.9,1.3c-0.5,0.5-0.9,1-1.2,1.5c-0.5,0.6-0.8,1.4-1,2.2
		c0,0.6-0.1,1.2-0.1,1.8c0,1.4,0.2,2.7,0.8,4c0.1,0.3,0.3,0.6,0.6,0.8c0.5,0.4,1,0.8,1.5,1.3c0.8,0.9,2,1.5,3.2,1.5H170.3z"/>
	<path class="st0" d="M74.5,170.9c0-1,0-1.7,0-2.4c-0.1-0.4,0.1-0.8,0.4-1.1c0.2-0.2,0.1-0.7,0.2-1.1c0-0.4-0.1-0.8,0.4-1
		c0,0,0.1-0.1,0.1-0.2c0-0.8,0.4-1.6,1-2.2c0.5-0.7,0.9-1.5,1.3-2.2c0.2-0.3,0.5-0.6,0.8-0.8c0.4-0.4,0.9-0.8,1.4-1.2
		c0.4-0.3,0.8-0.7,1.2-1c0.5-0.4,1-0.7,1.5-1c0.6-0.3,1.3-0.4,1.9-0.7c0.3-0.1,0.5-0.2,0.8-0.3c0.2-0.1,0.3-0.1,0.5-0.1
		c0.6,0,1.2,0,1.7-0.1s0.8,0.1,1.2-0.4c0.4-0.5,1.8,0,2.1,0.2c0.2,0.1,0.3,0.2,0.5,0.2c0.6,0,1.2,0,1.8,0.1c0.3,0.1,0.7,0.2,1,0.4
		c0.1,0,0.2,0.1,0.2,0.1c0.8-0.1,1.5,0.2,2.1,0.7c0.8,0.4,1.5,0.9,2.1,1.4c0.6,0.5,1.2,0.9,1.9,1.3c0.3,0.2,0.5,0.4,0.6,0.7
		c0.5,0.8,1,1.6,1.7,2.2c0.2,0.3,0.5,0.7,0.6,1.1c0.2,0.4,0.4,0.8,0.5,1.2c0,1,0.9,1.8,0.7,2.9c0,0.2,0.2,0.5,0.3,0.7
		c0.1,0.2,0.1,0.3,0.1,0.5c0,1.2,0,2.5,0,3.8c0,0.2-0.2,0.4-0.3,0.6c-0.1,0.3-0.2,0.6-0.2,0.9c-0.1,0.5,0.2,1.2-0.5,1.5
		c0,0,0,0,0,0.1c0.2,0.8-0.6,1.4-0.7,2.1c-0.1,0.3-0.2,0.5-0.4,0.7c-0.7,1.1-1.5,2.1-2.5,3c-0.5,0.4-0.9,1-1.4,1.4
		c-0.4,0.3-0.8,0.5-1.2,0.8c-0.2,0.2-0.5,0.3-0.7,0.5c-0.5,0.3-1,0.7-1.6,0.9c-0.3,0.1-0.7,0.2-1,0.2c-0.4,0-0.8-0.1-1,0.4
		c-0.1,0.1-0.4,0.1-0.7,0.1c-0.8,0-1.5,0.1-2.3,0.4c-0.7,0.3-1.5,0.3-2.1-0.2c-0.3-0.2-0.8-0.1-1.2-0.2c-0.6-0.1-1.3,0.2-1.7-0.4
		c-0.1,0-0.1,0-0.2,0c-0.9,0-1.8-0.2-2.5-0.7c-0.7-0.4-1.4-0.9-2-1.4c-0.4-0.3-0.8-0.5-1.2-0.8c-0.3-0.2-0.6-0.4-0.9-0.7
		c-0.2-0.1-0.3-0.3-0.4-0.5c-0.4-0.6-0.9-1.2-1.3-1.8c-0.4-0.6-0.6-0.9-0.9-1.4c0,0-0.1,0-0.1-0.1c-0.1-0.6-0.4-1.2-0.7-1.8
		c-0.6-0.7-0.2-1.6-0.6-2.2C74.1,172.8,74.7,171.7,74.5,170.9z M89.7,178.1c0.6,0,1.3,0,1.9-0.1c0.6-0.2,1.2-0.4,1.8-0.6
		c0.1,0,0.2-0.1,0.2-0.1l1.4-1c0.1-0.1,0.2-0.1,0.2-0.2c0.5-0.8,1-1.5,1.4-2.3c0.3-0.6,0.6-1.2,0.8-1.9c0.2-1.5,0-3.1-0.6-4.6
		c0,0,0-0.1,0-0.1c-0.4-0.5-0.8-1-1.1-1.6c-0.1-0.3-0.6-0.6-0.9-0.8c-0.3-0.2-0.7-0.5-1.1-0.7c-0.6-0.6-1.4-0.9-2.2-1
		c-0.5,0-1,0.1-1.4-0.4c-0.1-0.1-0.5,0-0.8,0S89.1,163,89,163c-0.8-0.1-1.7,0.1-2.4,0.6c-0.4,0.3-1,0.4-1.5,0.8
		c-0.5,0.3-0.4,0.7-0.8,0.8c-0.5,0.2-0.5,0.8-0.8,1.1c-0.3,0.4-1,1-0.9,1.7c0,0.1,0,0.3-0.1,0.4c-0.6,0.3-0.4,0.9-0.4,1.4
		c-0.1,0.7-0.1,1.5,0,2.2c0.1,0.7,0.3,1.3,0.6,1.9c0.4,0.7,1,1.3,1.5,1.9c0.3,0.5,0.8,0.9,1.3,1.1c0.1,0,0.2,0.1,0.3,0.2
		c0.5,0.3,1.1,0.6,1.7,0.8C88.3,178.1,89,178.1,89.7,178.1z"/>
	<path class="st0" d="M57.6,155h17.7c0.3,0,0.5,0.1,0.7,0.2c0.1,0.1,0,0.5-0.1,0.7c-0.1,0.2-0.3,0.3-0.4,0.5
		c-0.5,0.4-0.9,0.9-1.4,1.3c-0.3,0.2-0.5,0.5-0.6,0.8c-0.2,0.6-0.6,1.1-1.1,1.5c-0.3,0.4-0.5,0.9-0.7,1.4c-0.1,0.2-0.3,0.4-0.4,0.7
		c0,0-0.1,0-0.1,0.1c-0.2,0.7-0.4,1.4-0.7,2c-0.3,0.9-0.5,1.8-0.6,2.7c-0.1,0.5-0.6,0.8-1.1,0.8c-9.6,0-19.2,0-28.9,0
		c-0.8,0-1.6,0.1-2.1-0.6c-0.4-0.4-0.6-0.9-0.7-1.4c-0.1-2.7,0-5.5,0-8.2c0-0.8,0.9-1.6,1.6-1.9c1.9-0.9,3.9-0.3,5.9-0.4
		C48.9,155,53.3,155,57.6,155z"/>
</g>
</svg>
