<svg id="Layer_1" data-name="Layer 1" xmlns="http://www.w3.org/2000/svg" viewBox="0 0 250 250"><defs><style>.cls-1{fill:#8da4ac;}</style></defs><path class="cls-1" d="M55.41,133.79h8.93v-4.25c-2.12-.28-2.92-.86-3-2.14s.67-1.86,3-2.39V111.42c-2.1-.26-3-1-3-2.27s.89-2,3.07-2.27c-.3-4.67,1-8.75,4.72-11.84a12.77,12.77,0,0,1,8.31-3c5.74,0,13.57,4.71,13,14.62a14.85,14.85,0,0,1,2.43,1.19,2,2,0,0,1,.48,1.39c0,1.3-.84,1.92-2.94,2.2V125c2.33.53,3,1.12,3,2.41s-.94,1.92-2.94,2.08v13.69c2.17.38,2.94,1,2.95,2.27s-.76,1.92-3,2.33v33.79H64.45V147.75c-2.21-.28-3.1-1-3.1-2.29s.86-2,3-2.25v-6.43H55.43v44.79h-4.2V136.78H48.16v44.79H45.3V180.4q0-22.2,0-44.39c0-1.8.37-2.17,2.2-2.17l3.31,0a1.41,1.41,0,0,0,.29-.07V107.83H44.75c-2.11,0-2.81-.71-2.81-2.86V71.81c0-2.18.73-2.91,2.91-2.91H77.67c2.26,0,3,.71,3,2.94V91.46l-4.24-.38V73.26H46.22v30.27c.34,0,.65.08,1,.08h5.73c1.76,0,2.48.7,2.49,2.45,0,3,0,6,0,9v18.68Zm21.9-23.3H90.52a5.18,5.18,0,0,0,.88,0c.74-.13,1.29-.65,1.13-1.35-.11-.49-.69-.91-1.14-1.26-.18-.15-.57,0-.86,0H64.12c-.29,0-.68-.1-.86.05-.41.34-1,.82-1,1.22s.56,1,1,1.34c.19.17.63.06,1,.06Zm.13,33.66H65.78c-.77,0-1.54,0-2.31,0a1.23,1.23,0,0,0-1.27,1.26,1.27,1.27,0,0,0,1.14,1.38,3.29,3.29,0,0,0,.77,0H90.62c.26,0,.61.09.76,0,.44-.41,1.06-.86,1.14-1.37.12-.68-.43-1.21-1.22-1.26-.29,0-.59,0-.88,0Zm-.15-15.51H82.9c2.68,0,5.35,0,8,0,1,0,1.72-.58,1.64-1.36-.1-1-.76-1.36-1.69-1.34H64.15c-.36,0-.84,0-1.06.15a2.24,2.24,0,0,0-.83,1.34c0,.38.56.85,1,1.12s.71.09,1.08.09Z"/><path class="cls-1" d="M124.89,197.11H38.19c-2.4,0-3.12-.73-3.12-3.17,0-2.87,0-5.73,0-8.59,0-1.95.89-2.81,2.84-2.81h174c2.25,0,3.07.81,3.07,3q0,4.19,0,8.37c0,2.44-.72,3.17-3.12,3.17Z"/><path class="cls-1" d="M126.49,181.61h-25.9v-16c-2.22-.28-3.11-1-3.1-2.28s.87-2,3-2.26V147.8c-2.31-.51-3.12-1.19-3-2.49s1-1.9,3-2.05V129.58c-2.19-.41-3-1-3-2.25s.78-1.9,3-2.29V111.46c-2.19-.41-3-1.09-3-2.37s1-2,3.07-2.18c-.32-4.84,1.09-9,5-12.13a12.35,12.35,0,0,1,8.07-2.73,12.74,12.74,0,0,1,9.75,4.6c2.53,2.95,3.26,6.47,3.08,10.22,2.22.3,3,1,3,2.31s-.92,2-2.95,2.21V125c2.46.7,3.05,1.2,2.94,2.5s-.86,1.76-3,2.07V143a17.82,17.82,0,0,1,2.51,1.27,1.84,1.84,0,0,1,.43,1.3c0,1.33-.8,1.92-2.94,2.21v13a20.57,20.57,0,0,1,2.57,1.4,1.79,1.79,0,0,1,.36,1.32c0,1.27-.86,1.83-3,2.11Zm-12.9-73.79H101c-.47,0-1,0-1.43,0a1.33,1.33,0,0,0,0,2.65,4.85,4.85,0,0,0,.66,0h26.51c.3,0,.7.1.86,0,.43-.38,1-.88,1-1.32s-.64-.92-1.09-1.26c-.22-.16-.64,0-1,0Zm-.16,36.33c-4.47,0-9,0-13.42,0a1.49,1.49,0,0,0-1.61.88c-.39,1,.39,1.81,1.77,1.81H126.8c1.23,0,1.9-.47,1.92-1.32s-.64-1.36-1.87-1.36Zm.22,17.87H100.43c-.33,0-.76-.11-1,0-.44.35-1,.82-1,1.28s.52.94.94,1.26c.24.19.71.07,1.08.07h26.11c.33,0,.75.11,1-.05.46-.33,1-.76,1.15-1.24.16-.69-.36-1.24-1.13-1.35a6.51,6.51,0,0,0-1,0Zm-.09-36.09h-13.2c-.4,0-.92,0-1.16.16a2.17,2.17,0,0,0-.8,1.36c0,.39.59.82,1,1.11.23.16.64.07,1,.07h26.29c.29,0,.66.09.86-.06.44-.31,1.06-.71,1.11-1.13s-.42-1-.82-1.35c-.25-.21-.76-.16-1.16-.16Z"/><path class="cls-1" d="M146.45,129.75v15.79c.83.24,1.8.37,1.73,1.56s-.87,1.23-1.72,1.37v15.71c.79.26,1.78.37,1.72,1.57s-.86,1.23-1.77,1.42v14.45H133.59V167.2c-.92-.23-1.8-.41-1.77-1.53s.82-1.28,1.68-1.43V148.46c-.86-.13-1.66-.33-1.68-1.4s.7-1.35,1.66-1.42V129.77c-.9-.15-1.73-.4-1.66-1.52.06-1,.76-1.25,1.64-1.3a5.53,5.53,0,0,0,.09-.77q0-7.11,0-14.21c0-.47,0-.85-.63-1.07a1.92,1.92,0,0,1-1.07-1.25c-.17-.75.41-1.19,1.14-1.34l.49-.09V92.46c-.78-.23-1.7-.36-1.68-1.51s.86-1.23,1.7-1.45V73.77c-.31-.08-.69-.07-.85-.25-.34-.37-.8-.86-.78-1.28a1.52,1.52,0,0,1,.89-1.15c.75-.18.8-.56.8-1.16,0-5.26,0-10.51,0-15.76V52.89h12.79c0,.39.06.78.06,1.17q0,7.81,0,15.64c0,.69-.07,1.27.91,1.4.33,0,.81.72.81,1.11a2.37,2.37,0,0,1-.75,1.29c-.16.19-.54.17-.89.27V89.44l.25-.2c.48.57,1.25,1.09,1.4,1.74.24,1.1-.83,1.26-1.68,1.47v15.73c.23,0,.55,0,.69.17.39.41,1,.89,1,1.36s-.61.83-1,1.24-.71.54-.71.82c0,4.92,0,9.84,0,14.76a2,2,0,0,0,.08.38c.83.13,1.69.32,1.68,1.44S147.39,129.64,146.45,129.75Z"/><path class="cls-1" d="M175.57,181.64c-2.94,0-5.87,0-8.81,0a3.28,3.28,0,0,1-1.46-.32,21.92,21.92,0,0,1-11.66-15.79,1.28,1.28,0,0,0-.92-1.17,2.8,2.8,0,0,1-1.94-2.79,3.14,3.14,0,0,1,1.93-2.83,1.78,1.78,0,0,0,.88-1,22.27,22.27,0,0,1,43.85-.07,1.24,1.24,0,0,0,.93,1.14,2.94,2.94,0,0,1,1.91,2.83,2.9,2.9,0,0,1-2,2.77,1.16,1.16,0,0,0-.85,1.08,22,22,0,0,1-11.62,15.82,3,3,0,0,1-1.45.35C181.44,181.65,178.51,181.64,175.57,181.64Zm-.11-22.27h-13c-2.9,0-5.8,0-8.7,0a2.18,2.18,0,0,0-.35,4.32,4.2,4.2,0,0,0,.87.06q21.26,0,42.5,0a3.75,3.75,0,0,0,1.29-.2,2.12,2.12,0,0,0,1.13-3,2.37,2.37,0,0,0-2.39-1.21C189.7,159.38,182.58,159.37,175.46,159.37Z"/><path class="cls-1" d="M173.08,83.42H147.16V79.2h27.47c2,0,2.75.76,2.75,2.72v56.49h-4.3Z"/><path class="cls-1" d="M114.9,83.38v7.74l-4.23.25V85.28c0-1.32,0-2.65,0-4a2,2,0,0,1,2-2.09c6.64,0,13.28,0,20,0v4.17Z"/></svg>