<svg id="Layer_1" data-name="Layer 1" xmlns="http://www.w3.org/2000/svg" viewBox="0 0 250 250"><defs><style>.cls-1{fill:#8da4ac;}</style></defs><path class="cls-1" d="M103.55,68.75c5,0,9.55,0,14.15,0,3.84,0,4.72.91,4.74,4.69,0,1.85,0,3.7,0,5.54a7.24,7.24,0,0,1-.27,1.23c-6-.48-11.28,1.09-15.13,6.06a15.37,15.37,0,0,0-3.1,11c.64,8.43,7,13.42,18.51,14.08,0,2.8.15,5.64,0,8.45-.17,2.28-1.88,2.92-4,2.91-4.81,0-9.62,0-15,0,4.06,6.43,4.31,12.3-1.88,17-3.73,2.83-9.28,2.38-12.9-.59-4.37-3.59-4.73-7.48-1.37-16.44-4.8,0-9.48,0-14.16,0-3.58,0-4.56-1-4.56-4.56q0-22.3,0-44.61c0-3.75,1-4.7,4.76-4.74,4.61,0,9.22,0,14.39,0-2.5-3.87-4-7.72-2.18-11.79a13.75,13.75,0,0,1,4.1-5.17,10.35,10.35,0,0,1,13,.84C107,56.41,107.3,61.05,103.55,68.75Z"/><path class="cls-1" d="M146.38,127.29c-3.91-7.47-3.45-12.56,1.1-16.35a10.94,10.94,0,0,1,13.4-.32c4.78,3.62,5.33,8.4,1.64,16.67,4.74,0,9.3,0,13.85,0,4,0,5,.93,5,4.81q0,22.29,0,44.58c0,3.57-1,4.54-4.59,4.55-4.67,0-9.34,0-14.13,0,3.4,9.28,2.83,13.54-2.1,17a10.85,10.85,0,0,1-13.37-.87c-4.31-3.81-4.65-8.75-.74-16.15H135c-7.58,0-7.58,0-7.58-7.65v-3.91c6,.57,11.1-.79,14.92-5.32A15.12,15.12,0,0,0,146,153.87c-.2-9.1-6.37-14.3-18.59-15.32,0-2.69-.11-5.43,0-8.15.14-2.49,1.94-3.12,4.11-3.11Z"/><path class="cls-1" d="M138.83,122.64c-2.86,0-5.52.09-8.16,0-2.47-.1-3.26-1.73-3.25-4,0-4.81,0-9.62,0-15-6.66,4-12.72,4.42-17.3-2.42a10.31,10.31,0,0,1,1-12.58c3.74-4.31,7.78-4.65,16.33-1.12,0-4.74,0-9.3,0-13.85,0-4.18.82-4.95,5.09-4.95l44,0c3.73,0,4.77,1,4.8,4.71,0,4.61,0,9.22,0,14.35,6.5-4,12.39-4.37,17,2a10.57,10.57,0,0,1-.9,13.11c-3.66,4.18-8.39,4.54-16.15.91,0,4.57,0,8.9,0,13.24,0,5-.6,5.6-5.67,5.62-1.83,0-3.66,0-5.83,0,.55-6.26-.88-11.61-5.82-15.52a15.16,15.16,0,0,0-10.58-3.43C144.43,104.25,139.23,110.85,138.83,122.64Z"/><path class="cls-1" d="M68.53,162.34c-7.82,3.82-12.8,3.32-16.51-1.35a11,11,0,0,1,0-13.41c3.59-4.59,8.34-5.07,16.54-1.38,0-4.55,0-8.89,0-13.22,0-5,.66-5.63,5.67-5.67,1.83,0,3.66,0,5.81,0-.47,6.26.9,11.61,5.82,15.55A15.37,15.37,0,0,0,97,146.21c8.65-.68,13.8-7.46,14-18.86,2.88,0,5.82-.21,8.71.07,2.21.21,2.78,2,2.76,4.11-.07,4.78,0,9.57,0,15,3.84-2.59,7.63-4,11.58-2.33a13.91,13.91,0,0,1,5.44,4.23,10.37,10.37,0,0,1-.82,13.06c-3.76,4.27-8.58,4.61-16.22.82,0,1.62.09,3,0,4.32-.34,4.61-.73,9.22-1.11,13.82-4.54.27-9.09.72-13.63.77-11.38.11-22.76,0-34.13,0-4.18,0-5-.83-5-5C68.51,171.69,68.53,167.2,68.53,162.34Z"/></svg>