<svg id="Layer_1" data-name="Layer 1" xmlns="http://www.w3.org/2000/svg" viewBox="0 0 250 250"><defs><style>.cls-1{fill:#8da4ac;}</style></defs><path class="cls-1" d="M179.73,164.38c0-11.71,0-23.42,0-35.13A21.07,21.07,0,0,1,200,108.47l.59,0c1.71,0,2.85,1.06,2.85,2.52a2.58,2.58,0,0,1-2.8,2.56A16.18,16.18,0,0,0,184.8,130v69.83c0,12.69-9.2,21.88-21.89,21.88H123.8c-8.45,0-14.32-5.86-14.35-14.3,0-4.11.42-3.57-3.62-3.59-5,0-10,0-15,0-1.06,0-2.1,0-2.58-1.18s.32-1.89,1.08-2.63c8-7.71,11-17.05,8-27.73s-10.4-17.39-21.37-19.72a39.52,39.52,0,0,0-7.31-.47c-1.92,0-2.58-.52-2.7-2.44q-1-17-2-34-.65-11.45-1.26-22.89c-.16-3,1.22-4.49,4.23-4.49H132.2a5.22,5.22,0,0,1,5.41,3.69q2.89,7.29,5.77,14.61c2,5,5.55,7.48,10.94,7.48h.88c4,0,4.83.81,4.6,4.88q-1.55,27.51-3.13,55c-.45,7.83-.87,15.66-1.32,23.48a13.58,13.58,0,0,1-.29,2.63,5.12,5.12,0,0,1-5.29,3.79H116.55c-2,0-2,0-2,1.95a25.35,25.35,0,0,0,.09,3.38c.68,4.58,4.27,7.47,9.26,7.48q13.08,0,26.17,0c4.75,0,9.52.19,14.25-.1,9.15-.57,15.4-7.42,15.42-16.59Q179.75,182.17,179.73,164.38Zm-68.92-38.85c.14-.67.22-1.15.34-1.61L117,101c.47-1.85-.12-3.18-1.61-3.75s-2.78.06-3.66,1.79Q102.88,116.63,94,134.2c-1.7,3.38,0,6.09,3.85,6.09,4.51,0,9,0,13.52,0h1.65c-.67,2.64-1.28,5.06-1.9,7.47q-2.22,8.67-4.44,17.35c-.51,2,.63,3.7,2.55,3.74,1.51,0,2.26-.9,2.87-2.12,5.86-11.68,11.67-23.39,17.65-35,1.69-3.27-.42-6.42-3.9-6.25C121,125.7,116,125.53,110.81,125.53Z"/><path class="cls-1" d="M111.86,69.69h53.22c4.23,0,5.64,1.52,5.39,5.72-.6,10.27-1.17,20.54-1.78,30.81-.17,2.87-1.77,4.34-4.65,4.35q-5.14,0-10.29,0a7,7,0,0,1-6.93-4.7c-2-5-3.94-9.92-5.9-14.88-1.69-4.28-4.52-6.21-9.13-6.21H58.43c-4,0-5.38-1.36-5.38-5.36v-5c0-3.08,1.64-4.72,4.71-4.72Z"/><path class="cls-1" d="M70.73,155.44a24.2,24.2,0,1,1-24.18,24.21A24.18,24.18,0,0,1,70.73,155.44Zm9.76,24.27a9.76,9.76,0,1,0-9.85,9.72A9.72,9.72,0,0,0,80.49,179.71Z"/><path class="cls-1" d="M84.66,48.4c0,4.94,0,9.89,0,14.84,0,2.31-.68,3-3,3-1.18,0-2.35,0-3.53,0-2,0-2.74-.75-2.74-2.76q0-12,0-24.1c0-2,0-4.11,0-6.17A4.71,4.71,0,0,1,80,28.27a4.59,4.59,0,0,1,4.63,4.84c0,5.1,0,10.19,0,15.29Z"/><path class="cls-1" d="M148.31,48.26c0,5,0,10,0,15,0,2.27-.7,3-3,3-1.27,0-2.55,0-3.82,0a2.17,2.17,0,0,1-2.43-2.33c-.05-1.27,0-2.55,0-3.82,0-8.87,0-17.74,0-26.6,0-3.68,2.88-6,6-4.95a4.59,4.59,0,0,1,3.18,4.61C148.32,38.17,148.31,43.22,148.31,48.26Z"/><path class="cls-1" d="M127.27,129l-15.38,30.59-.21-.09q2.49-9.72,5-19.45c.64-2.53.12-3.18-2.54-3.18H96.51l15.09-30,.24.06c0,.32-.06.65-.13,1l-4.65,18.21c-.51,2,.07,2.76,2.13,2.77,5.39,0,10.78,0,16.17,0C125.88,128.89,126.39,128.94,127.27,129Z"/></svg>