<?xml version="1.0" encoding="utf-8"?>
<!-- Generator: Adobe Illustrator 25.2.0, SVG Export Plug-In . SVG Version: 6.00 Build 0)  -->
<svg version="1.1" id="Layer_1" xmlns="http://www.w3.org/2000/svg" xmlns:xlink="http://www.w3.org/1999/xlink" x="0px" y="0px"
	 viewBox="0 0 20 20" style="enable-background:new 0 0 20 20;" xml:space="preserve">
<style type="text/css">
	.st0{fill-rule:evenodd;clip-rule:evenodd;fill:#113559;}
</style>
<path class="st0" d="M20,20h-4v-7c0-1.9-0.8-3-2.4-3C12,10,11,11.1,11,13v7H7V7h4v1.5c0,0,1.3-2.2,4.1-2.2c2.8,0,4.9,1.7,4.9,5.3V20
	z M2.4,4.9C1.1,4.9,0,3.8,0,2.5c0,0,0,0,0,0C0,1.1,1.1,0,2.4,0c0,0,0,0,0,0c1.4,0,2.4,1.1,2.4,2.5C4.9,3.8,3.8,4.9,2.4,4.9
	C2.4,4.9,2.4,4.9,2.4,4.9z M0,20h5V7H0V20z"/>
</svg>
