<?xml version="1.0" encoding="utf-8"?>
<!-- Generator: Adobe Illustrator 25.2.0, SVG Export Plug-In . SVG Version: 6.00 Build 0)  -->
<svg version="1.1" id="Layer_1" xmlns="http://www.w3.org/2000/svg" xmlns:xlink="http://www.w3.org/1999/xlink" x="0px" y="0px"
	 viewBox="0 0 150 150" style="enable-background:new 0 0 150 150;" xml:space="preserve">
<style type="text/css">
	.st0{fill:#8DA4AC;}
</style>
<path class="st0" d="M38,63.2h74v39.2H38V63.2z"/>
<path class="st0" d="M112.1,104.9c-0.2,5.1,0.8,10.2-1.7,14.9c-3.2,6-8.2,8.9-14.9,9.4c-1.3,0.1-2.6,0-4,0l-0.2,2.1
	c0.4,0.1,0.8,0.2,1.2,0.2c1.4-0.1,2.6,1,2.7,2.3c0,0.2,0,0.3,0,0.5c0,1.7-1.3,2.5-2.9,2.5H57.8c-1.7,0-2.9-0.8-2.9-2.5
	c0-2.2,1.5-2.9,3.6-2.8v-2.1c-2.2-0.2-4.4-0.2-6.5-0.6c-8.3-1.1-14.4-8.3-14.1-16.6c0-2.4,0-4.8,0-7.3H112.1z M88.1,131.5l-0.1-2.1
	H76.6l0.1,2.1H88.1z M61.9,131.5h11.2v-2H61.9V131.5z"/>
<path class="st0" d="M38,60.6c-1.1-10.4,6.6-21,17.2-23.5c2.3-0.5,4.6-0.8,6.9-0.8c8.6-0.1,17.2,0,25.8,0c12.3,0,21.4,7.4,23.9,19.3
	c0.2,1.7,0.4,3.4,0.4,5.1L38,60.6z"/>
<path class="st0" d="M92.1,18.9V35H58V19l-2.2-0.1c-2-0.1-3.5-1.4-3.3-2.9c0.1-1.6,1.5-2.8,3.1-2.7c0.1,0,0.1,0,0.2,0h37.1
	c0.6,0,1.2,0,1.8,0c1.5,0,2.8,1.1,2.8,2.6c0.1,1.5-1.1,2.9-2.6,3c-0.1,0-0.1,0-0.2,0C93.8,18.9,92.9,18.9,92.1,18.9z M68.4,28.3
	c0.7,0.2,1.4,0.3,2.1,0.4c0.8,0.1,1.6,0.1,2.4,0c1.3-0.4,2.6-0.8,3.9-1.3V33c3.4,0,6.6,0.1,9.8,0c1.5,0,2.8-1.2,2.8-2.8
	c0-0.1,0-0.2,0-0.3c0-2.6,0-5.1,0-7.7c0.2-1.6-1-3.1-2.7-3.3c-0.2,0-0.4,0-0.6,0c-7.5,0-15.1,0-22.6,0c-1.6-0.1-3,1-3.1,2.6
	c0,0.2,0,0.3,0,0.5c0,2.6,0,5.3,0,7.9c-0.2,1.5,0.9,2.8,2.4,3c0.1,0,0.2,0,0.3,0c3.3,0.2,6.6,0,9.8,0v-2.2c-0.8,0-1.7,0-2.5,0.1
	C68.1,31.3,68,31.2,68.4,28.3z"/>
<path class="st0" d="M75,27.3c-1.6,0-3.2,0-4.7,0s-2.6-0.6-2.5-2.4c0-1.8,0.9-2.4,2.5-2.4c3.2,0,6.3,0,9.5,0c1.6,0,2.5,0.6,2.5,2.4
	s-1,2.4-2.6,2.4S76.5,27.3,75,27.3z"/>
</svg>
