<?xml version="1.0" encoding="utf-8"?>
<!-- Generator: Adobe Illustrator 25.2.0, SVG Export Plug-In . SVG Version: 6.00 Build 0)  -->
<svg version="1.1" id="Layer_1" xmlns="http://www.w3.org/2000/svg" xmlns:xlink="http://www.w3.org/1999/xlink" x="0px" y="0px"
	 viewBox="0 0 37.6 37.6" style="enable-background:new 0 0 37.6 37.6;" xml:space="preserve">
<style type="text/css">
	.st0{fill-rule:evenodd;clip-rule:evenodd;fill:#8DA4AC;}
	.st1{fill:#FFFFFF;}
	.st2{fill-rule:evenodd;clip-rule:evenodd;fill:#AABCC1;}
</style>
<g>
	<path class="st0" d="M19,1.4c-3.3,0-6.3,0.9-8.9,2.4l2.8,2.9c1.8-1,3.9-1.4,6.1-1.4c7.6,0,13.7,6.1,13.7,13.7S26.6,32.7,19,32.7
		S5.3,26.6,5.3,19c0-2.2,0.5-4.3,1.4-6.1l-2.9-2.8c-1.6,2.6-2.4,5.7-2.4,8.9c0,9.7,7.9,17.6,17.6,17.6S36.5,28.7,36.5,19
		S28.7,1.4,19,1.4z M9.5,4.2C9.3,4.3,9.2,4.5,9,4.6c-0.8,0.6-1.7,1.3-2.4,2c-0.7,0.7-1.4,1.6-2,2.4C4.5,9.1,4.4,9.3,4.3,9.5l2.8,2.8
		c0.1-0.2,0.2-0.4,0.4-0.6C8.5,10,10,8.5,11.8,7.3C12,7.2,12.1,7.1,12.3,7L9.5,4.2z"/>
	<path class="st0" d="M19,8.2c-1.7,0-3.4,0.4-4.8,1.1v2.6l0.1,0.1c1.3-0.9,3-1.4,4.7-1.4l0,0c4.7,0,8.4,3.8,8.3,8.4
		c0,4.7-3.8,8.4-8.4,8.3c-4.7,0-8.4-3.8-8.3-8.4c0-1.7,0.5-3.3,1.4-4.7l-0.1-0.1H9.4c-0.7,1.4-1.1,3-1.1,4.8
		c0,5.9,4.8,10.7,10.7,10.7S29.7,24.9,29.7,19S24.9,8.2,19,8.2z M13.6,12.2V9.7c-0.2,0.1-0.4,0.2-0.7,0.4c-1.1,0.8-2,1.7-2.8,2.8
		c-0.1,0.2-0.3,0.4-0.4,0.7h2.5l0.2,0.2c0.1-0.2,0.3-0.4,0.4-0.5c0.1-0.2,0.3-0.3,0.5-0.5c0.2-0.1,0.3-0.3,0.5-0.4L13.6,12.2z"/>
	<path class="st0" d="M19,12.8c-1.1,0-2.3,0.3-3.2,0.9l1,1c0.7-0.3,1.4-0.5,2.1-0.5c2.7,0,4.9,2.2,4.9,4.9s-2.2,4.9-4.9,4.9
		s-4.9-2.2-4.9-4.9c0-0.8,0.2-1.5,0.5-2.1l-1-1c-0.5,0.9-0.8,2-0.8,3.2c0,3.5,2.8,6.3,6.3,6.3s6.3-2.8,6.3-6.3S22.5,12.8,19,12.8z
		 M15.3,15.8c0.1-0.1,0.2-0.2,0.2-0.2c0.1-0.1,0.2-0.1,0.2-0.2c0.2-0.1,0.3-0.3,0.5-0.4l-1-1c-0.2,0.1-0.4,0.2-0.5,0.4
		c-0.2,0.1-0.3,0.3-0.5,0.5c-0.1,0.2-0.3,0.3-0.4,0.5l1,1C15.1,16.2,15.2,16,15.3,15.8z"/>
	<path class="st1" d="M19.1,17.8C19.1,17.8,19.1,17.8,19.1,17.8L19.1,17.8l-2.8-2.9l-1-1l-1.8-1.7V8.8c0-0.2-0.1-0.5-0.3-0.7l-1-1.1
		L9.5,4.2l-2-2c-0.4-0.4-1-0.4-1.4,0C5.9,2.4,5.8,2.6,5.8,2.9v2.9h-3c-0.5,0-1,0.4-1,1C1.9,7,2,7.2,2.2,7.4l2.1,2.1l2.8,2.8l1,1
		c0.2,0.2,0.4,0.3,0.7,0.3h3.5l0.2,0.2l1.6,1.6l1,1l2.8,2.8c0.2,0.2,0.4,0.3,0.7,0.3c0.2,0,0.5-0.1,0.7-0.3l0,0
		C19.5,18.8,19.5,18.2,19.1,17.8z M18.6,18.7L18.6,18.7c-0.1,0.1-0.4,0.1-0.5,0l-0.1-0.1l-2.8-2.9l-1-1l-1.5-1.6l-0.2-0.2
		c-0.1-0.1-0.3-0.2-0.4-0.2H8.8c-0.1,0-0.2,0-0.2-0.1l-1.1-1.1L2.7,6.9C2.6,6.9,2.5,6.7,2.5,6.7s0-0.1,0-0.1
		c0.1-0.1,0.2-0.2,0.3-0.2h3c0.3,0,0.6-0.3,0.6-0.6V2.9c0-0.1,0.1-0.3,0.2-0.3C6.8,2.5,7,2.6,7,2.6l2,2l2.7,2.8l1.1,1.1
		c0.1,0.1,0.1,0.2,0.1,0.2v3.5c0,0.2,0.1,0.3,0.2,0.4l5.5,5.5l0.1,0.1l0,0C18.8,18.4,18.8,18.6,18.6,18.7z"/>
	<path class="st2" d="M19.1,19.1L19.1,19.1c-0.2,0.2-0.4,0.3-0.7,0.3c-0.2,0-0.5-0.1-0.7-0.3l-2.8-2.8l-1-1l-1.6-1.6l-0.2-0.2H8.7
		c-0.2,0-0.5-0.1-0.7-0.3l-1-1L4.2,9.5L2.1,7.4C1.9,7.2,1.8,7,1.8,6.7c0-0.5,0.4-1,1-1h3V2.9c0-0.2,0.1-0.5,0.3-0.7
		c0.4-0.4,1-0.4,1.4,0l2,2L12.3,7l1,1c0.2,0.2,0.3,0.4,0.3,0.7v3.5l1.7,1.7l1,1l2.8,2.8l0,0l0,0C19.5,18.2,19.5,18.8,19.1,19.1z"/>
</g>
</svg>
