<?xml version="1.0" encoding="utf-8"?>
<!-- Generator: Adobe Illustrator 25.2.0, SVG Export Plug-In . SVG Version: 6.00 Build 0)  -->
<svg version="1.1" id="Layer_1" xmlns="http://www.w3.org/2000/svg" xmlns:xlink="http://www.w3.org/1999/xlink" x="0px" y="0px"
	 viewBox="0 0 60.9 60.9" style="enable-background:new 0 0 60.9 60.9;" xml:space="preserve">
<style type="text/css">
	.st0{fill:#8DA4AC;}
</style>
<path class="st0" d="M60,27.3c-0.2,11.2-5.3,19-14.9,23.9c-0.5,0.2-1.1,0.2-1.6,0c-7.7-4-12.8-10-14.4-18.7
	c-0.6-3.1-0.6-6.3-0.1-9.4c0-0.6,0.6-1.1,1.2-1.1c4.8-0.1,8.9-2,12.8-4.5c1.2-0.8,1.3-0.8,2.6,0c3.3,2.3,7.2,3.9,11.2,4.4
	c0.4,0,0.8,0.1,1.2,0.1c1.1,0,1.5,0.3,1.6,1.5C59.9,24.8,59.9,26.2,60,27.3z M42.6,36c-1.3-1.3-2.5-2.5-3.7-3.7
	c-0.7-0.7-1.8-0.8-2.5-0.1l0,0c-0.7,0.6-0.7,1.7-0.1,2.4l0.1,0.1c1.6,1.7,3.3,3.3,4.9,4.9c0.6,0.7,1.6,0.8,2.3,0.2
	c0.1-0.1,0.2-0.1,0.2-0.2c2.8-2.8,5.6-5.6,8.4-8.5c0.4-0.4,0.6-0.9,0.5-1.4c-0.2-0.6-0.6-1.1-1.1-1.5c-0.7-0.3-1.5-0.1-1.9,0.5
	L42.6,36z"/>
<path class="st0" d="M11.6,6.4l-0.5,3.2H6.7c-1.3-0.2-2.5,0.7-2.7,2c0,0.2,0,0.4,0,0.6v42.3c-0.2,1.3,0.7,2.5,2,2.7
	c0.2,0,0.4,0,0.6,0c9.9,0,19.8,0,29.7,0c1.3,0.2,2.5-0.7,2.7-2.1c0-0.2,0-0.4,0-0.6c0-0.9,0-1.8,0-2.8c1.1,0.6,2.1,1.2,3.1,1.8
	c0.1,0.1,0.2,0.3,0.2,0.5c0.4,3.1-1.8,6-4.9,6.3c-0.2,0-0.5,0-0.8,0c-10,0.2-20,0.2-30.1,0.1c-3,0.1-5.6-2.3-5.7-5.3
	c0-0.1,0-0.3,0-0.4c0-14.2,0-28.3,0-42.5C0.7,9.2,3,6.7,6,6.5C7.8,6.3,9.7,6.4,11.6,6.4z"/>
<path class="st0" d="M17.9,3.7c1-2.5,2-3.4,3.9-3.3c1.9,0.1,2.8,1.1,3.5,3.3h2.8c0.6-0.1,1.1,0.3,1.2,0.9c0,0.1,0,0.1,0,0.2
	c0.2,1.3,0.5,2.6,0.7,4s0,1.5-1.3,1.5H14.5c-1.3,0-1.5-0.2-1.2-1.6s0.5-2.5,0.6-3.8c0-0.6,0.5-1.2,1.1-1.2c0.1,0,0.2,0,0.2,0
	C16.1,3.7,17,3.7,17.9,3.7z M23.4,4c0-1-0.7-1.9-1.7-1.9l0,0c-1,0-1.9,0.8-1.9,1.8s0.8,1.9,1.8,1.9C22.6,5.9,23.4,5,23.4,4L23.4,4z"
	/>
<path class="st0" d="M39.1,16.8c0-1.6,0-3,0-4.4c0-1.8-0.9-2.7-2.7-2.7H32l-0.5-3.4c2.3,0,4.7,0.2,7,0.5c2.4,0.5,3.9,2.8,4,5.3v0.1
	c0,0.9,0.3,2-0.2,2.5C41.4,15.6,40.3,16.3,39.1,16.8z"/>
<path class="st0" d="M34.8,48.5h-16c-0.3,0-0.7,0-0.8-0.1c-0.2-0.3-0.5-0.8-0.5-1.1c0.2-0.4,0.5-0.6,0.9-0.7c1.6-0.1,3.2,0,4.8,0
	c2.8,0,5.6,0,8.5,0c0.9-0.1,1.9,0.3,2.4,1c0.2,0.3,0.5,0.5,0.8,0.7L34.8,48.5z"/>
<path class="st0" d="M30.2,19c-0.8,0.5-1.9,1.2-2.9,1.8c-0.2,0.1-0.4,0.2-0.7,0.2h-7.8c-0.7,0-1.4-0.1-1.4-1s0.6-1,1.3-1H30.2z"/>
<path class="st0" d="M27.7,37.4l0.7,1.8c-0.3,0-0.5,0.1-0.7,0.1h-9c-0.7,0-1.3-0.1-1.3-0.9s0.6-1,1.3-1
	C21.7,37.4,24.7,37.4,27.7,37.4z"/>
<path class="st0" d="M26.1,28.2l0.2,1.9c-0.2,0-0.5,0.1-0.7,0.1h-6.8c-0.7,0-1.3-0.1-1.3-0.9s0.6-1,1.4-1L26.1,28.2z"/>
<path class="st0" d="M10.2,29.4c0.8-0.8,1.5-1.5,2.3-2.2c0.4-0.4,1-0.7,1.3-0.1c0.2,0.4,0.1,0.9-0.1,1.3c-0.9,1-1.9,1.9-2.8,2.9
	c-0.3,0.4-0.8,0.5-1.2,0.2c-0.1-0.1-0.2-0.1-0.2-0.2c-0.6-0.7-1.2-1.4-1.7-2.1c-0.2-0.4-0.2-0.8,0-1.2c0.4-0.5,0.9-0.3,1.3,0.1
	L10.2,29.4z"/>
<path class="st0" d="M10.2,38.6c0.8-0.8,1.5-1.5,2.2-2.2c0.4-0.4,0.9-0.7,1.4-0.2s0.3,1-0.2,1.4c-0.9,0.9-1.9,1.9-2.8,2.8
	c-0.2,0.4-0.8,0.5-1.2,0.3c-0.1-0.1-0.2-0.2-0.3-0.3c-0.6-0.7-1.2-1.3-1.8-2.1c-0.2-0.4-0.2-0.8,0-1.2c0.3-0.5,0.9-0.3,1.3,0.1
	L10.2,38.6z"/>
<path class="st0" d="M10.2,20.1c0.8-0.8,1.5-1.5,2.3-2.2c0.4-0.4,0.9-0.6,1.4-0.2s0.3,1-0.1,1.4c-0.9,0.9-1.8,1.8-2.7,2.8
	c-0.3,0.4-0.9,0.6-1.3,0.3c-0.1-0.1-0.2-0.2-0.3-0.3C9,21.2,8.4,20.6,7.9,20c-0.4-0.5-0.5-1,0-1.4s1-0.1,1.4,0.3S9.8,19.7,10.2,20.1
	z"/>
<path class="st0" d="M10.2,47.7l2.3-2.2c0.4-0.4,0.9-0.7,1.4-0.2s0.3,1-0.1,1.4L11,49.5c-0.5,0.6-1,0.6-1.6,0s-1.2-1.3-1.7-2
	c-0.2-0.4-0.2-0.9,0-1.3c0.4-0.5,0.9-0.3,1.3,0.2S9.8,47.3,10.2,47.7z"/>
</svg>
