<svg id="Layer_1" data-name="Layer 1" xmlns="http://www.w3.org/2000/svg" viewBox="0 0 83.83 83.83"><defs><style>.cls-1{fill:#a2a2a3;}</style></defs><path class="cls-1" d="M42.48,24.92l.26.14a1.22,1.22,0,0,1,.63,1.28,1.17,1.17,0,0,1-.95,1c-.51.07-1,.07-1.55.11a13.8,13.8,0,0,0-12,10.27A13.43,13.43,0,0,0,32,50.38a13.11,13.11,0,0,0,8.1,4.4A13.83,13.83,0,0,0,55.5,44.63a13.28,13.28,0,0,0,.44-3.13,3.64,3.64,0,0,1,0-.57,1.2,1.2,0,0,1,1.34-1,1.19,1.19,0,0,1,1.08,1.2,15.51,15.51,0,0,1-1.76,7.35,15.89,15.89,0,0,1-10.56,8.42A16.2,16.2,0,0,1,26.51,45.47a29.08,29.08,0,0,1-.53-3l-.06-.27V40.08c0-.38.09-.77.15-1.16A16.29,16.29,0,0,1,39.71,25.11c.46-.08.92-.13,1.37-.19Z"/><path class="cls-1" d="M41.13,44a1.58,1.58,0,0,1,.22-.33l14.23-14.2A1.33,1.33,0,0,1,56.94,29,1.22,1.22,0,0,1,57.57,31a1.94,1.94,0,0,1-.23.26L42.05,46.48a1.26,1.26,0,0,1-1.41.44,1.62,1.62,0,0,1-.6-.4l-6-6.48a1.32,1.32,0,0,1-.43-1,1.14,1.14,0,0,1,.78-1.05,1.17,1.17,0,0,1,1.34.31c.52.54,1,1.1,1.53,1.65l3.61,3.92Z"/></svg>