<svg id="Layer_1" data-name="Layer 1" xmlns="http://www.w3.org/2000/svg" viewBox="0 0 150 150"><defs><style>.cls-1{fill:#8da4ac;}</style></defs><path class="cls-1" d="M26.7,47.91C46.18,58.19,67,58.59,88.12,57.34l3.81-.24c.07.84.17,1.5.17,2.17q0,30.45,0,60.9c0,1.42,0,2.45-1.92,2.6-17.51,1.32-34.9,1-51.91-4a41.13,41.13,0,0,1-8.68-4.15,6,6,0,0,1-3-5.4q0-30.45,0-60.9A2.61,2.61,0,0,1,26.7,47.91Z"/><path class="cls-1" d="M71.63,26.57c15.77.39,28.14,1,40.06,4.76a33.92,33.92,0,0,1,8.65,4.19c4.06,2.74,4.12,6.78-.07,9.29a48.55,48.55,0,0,1-12.16,5.31c-17.84,4.81-36,5.1-54.2,2.56C46.2,51.6,38.59,50.06,31.7,46.2s-6.83-8.28,0-12.17C37.45,30.79,43.8,29.4,50.2,28.6,58.43,27.57,66.71,27,71.63,26.57Z"/><path class="cls-1" d="M123.34,47.71v2.55c0,18.92-.13,37.83.08,56.74,0,4.6-1.76,7.45-5.63,9.35-1.36.67-2.76,1.24-4.42,2-.07-1-.15-1.68-.15-2.34,0-20.37,0-40.74,0-61.12a2.92,2.92,0,0,1,2.14-3.21C118,50.57,120.5,49.13,123.34,47.71Z"/><path class="cls-1" d="M109.48,103.32c0,5.28,0,10.18,0,15.08a1.7,1.7,0,0,1-.93,1.29c-4.09.92-8.2,1.73-12.66,2.64,0-5.43,0-10.32.05-15.21a1.91,1.91,0,0,1,1.23-1.29C101.09,105,105.07,104.2,109.48,103.32Z"/><path class="cls-1" d="M109.11,93a3.56,3.56,0,0,1,.3.54c.51,5.86.51,5.86-5.23,7l-8.33,1.63c0-2.06-.07-3.81.05-5.55A1.7,1.7,0,0,1,97,95.46C101,94.58,105.06,93.81,109.11,93Z"/><path class="cls-1" d="M96.21,71a5,5,0,0,1-.31-.59c-.4-5.82-.4-5.82,5.3-7l8.27-1.63c0,2,0,3.82,0,5.61a1.5,1.5,0,0,1-.9,1.08C104.42,69.37,100.3,70.17,96.21,71Z"/><path class="cls-1" d="M109.08,82.68c.26.37.33.44.34.5.47,5.81.47,5.82-5.22,7q-3.83.76-7.66,1.48c-.13,0-.29-.08-.69-.19,0-1.59-.09-3.27.05-4.93A2.07,2.07,0,0,1,97,85.12a11.87,11.87,0,0,1,2.67-.67Z"/><path class="cls-1" d="M96.22,81.36a3.54,3.54,0,0,1-.33-.67C95.42,75,95.42,75,101,73.86c2.55-.52,5.11-1,7.66-1.51a3.63,3.63,0,0,1,.79.15c0,1.65.07,3.38,0,5.09a1.73,1.73,0,0,1-1,1.26C104.36,79.75,100.25,80.55,96.22,81.36Z"/><path class="cls-1" d="M109.3,53.91c.4,4,.4,4-3.13,4.73-3.33.68-6.69,1.29-10,1.93-.71-4-.69-3.93,2.74-4.54S105.74,54.64,109.3,53.91Z"/></svg>