<?xml version="1.0" encoding="utf-8"?>
<!-- Generator: Adobe Illustrator 25.2.0, SVG Export Plug-In . SVG Version: 6.00 Build 0)  -->
<svg version="1.1" id="Layer_1" xmlns="http://www.w3.org/2000/svg" xmlns:xlink="http://www.w3.org/1999/xlink" x="0px" y="0px"
	 viewBox="0 0 51.1 43.1" style="enable-background:new 0 0 51.1 43.1;" xml:space="preserve">
<style type="text/css">
	.st0{fill-rule:evenodd;clip-rule:evenodd;fill:#8DA4AC;}
</style>
<path class="st0" d="M50.4,25.2c-0.5-0.6-11.2-15-24.9-15S1.2,24.6,0.8,25.2s-0.4,1.4,0,2s11.1,15,24.8,15s24.4-14.4,24.8-15
	C50.9,26.5,50.9,25.8,50.4,25.2z M25.6,38.9c-10.1,0-18.8-9.6-21.4-12.7C6.7,23,15.4,13.4,25.6,13.4S44.3,23,47,26.1
	C44.4,29.3,35.7,38.9,25.6,38.9z"/>
<path class="st0" d="M25.6,16.2c-5.5,0-9.9,4.4-9.9,9.9s4.4,9.9,9.9,9.9s9.9-4.4,9.9-9.9l0,0C35.5,20.7,31.1,16.2,25.6,16.2z
	 M25.6,32.7c-3.7,0-6.6-3-6.6-6.6s3-6.6,6.6-6.6s6.6,3,6.6,6.6S29.2,32.7,25.6,32.7L25.6,32.7z"/>
<path class="st0" d="M25.6,28.9c1.5,0,2.8-1.3,2.8-2.8s-1.3-2.8-2.8-2.8s-2.8,1.3-2.8,2.8C22.8,27.6,24,28.9,25.6,28.9L25.6,28.9z"
	/>
<path class="st0" d="M25,0.9L25,0.9c0.8,0,1.4,0.6,1.4,1.4l0,0v5.4C26.3,8.4,25.7,9,25,9l0,0c-0.8,0-1.4-0.6-1.4-1.4V2.2
	C23.6,1.6,24.2,0.9,25,0.9z"/>
<path class="st0" d="M36.6,3.7L36.6,3.7c0.7,0.3,0.8,1.2,0.5,1.9l0,0l-2.7,4.6c-0.3,0.7-1.2,0.8-1.8,0.5l0,0l0,0
	c-0.7-0.3-0.8-1.2-0.5-1.9l2.7-4.6C35.2,3.5,35.9,3.4,36.6,3.7L36.6,3.7z"/>
<path class="st0" d="M13.2,3.7L13.2,3.7c-0.7,0.3-0.8,1.2-0.5,1.8l0,0l2.7,4.6c0.3,0.7,1.2,0.8,1.9,0.5l0,0l0,0
	c0.7-0.3,0.8-1.2,0.5-1.9l0,0l-2.6-4.6C14.8,3.5,13.9,3.4,13.2,3.7L13.2,3.7L13.2,3.7z"/>
</svg>
